<?xml version="1.0" encoding="UTF-8" standalone="no"?>
<!-- Created with Inkscape (http://www.inkscape.org/) -->

<svg
   xmlns:dc="http://purl.org/dc/elements/1.1/"
   xmlns:cc="http://creativecommons.org/ns#"
   xmlns:rdf="http://www.w3.org/1999/02/22-rdf-syntax-ns#"
   xmlns:svg="http://www.w3.org/2000/svg"
   xmlns="http://www.w3.org/2000/svg"
   xmlns:xlink="http://www.w3.org/1999/xlink"
   xmlns:sodipodi="http://sodipodi.sourceforge.net/DTD/sodipodi-0.dtd"
   xmlns:inkscape="http://www.inkscape.org/namespaces/inkscape"
   width="744.09448819"
   height="1052.3622047"
   id="svg2"
   version="1.1"
   inkscape:version="0.47 r22583"
   sodipodi:docname="logo.svg">
  <defs
     id="defs4">
    <inkscape:perspective
       sodipodi:type="inkscape:persp3d"
       inkscape:vp_x="0 : 526.18109 : 1"
       inkscape:vp_y="0 : 1000 : 0"
       inkscape:vp_z="744.09448 : 526.18109 : 1"
       inkscape:persp3d-origin="372.04724 : 350.78739 : 1"
       id="perspective10" />
    <inkscape:perspective
       id="perspective2837"
       inkscape:persp3d-origin="0.5 : 0.33333333 : 1"
       inkscape:vp_z="1 : 0.5 : 1"
       inkscape:vp_y="0 : 1000 : 0"
       inkscape:vp_x="0 : 0.5 : 1"
       sodipodi:type="inkscape:persp3d" />
    <inkscape:perspective
       id="perspective3629"
       inkscape:persp3d-origin="0.5 : 0.33333333 : 1"
       inkscape:vp_z="1 : 0.5 : 1"
       inkscape:vp_y="0 : 1000 : 0"
       inkscape:vp_x="0 : 0.5 : 1"
       sodipodi:type="inkscape:persp3d" />
    <inkscape:perspective
       id="perspective3651"
       inkscape:persp3d-origin="0.5 : 0.33333333 : 1"
       inkscape:vp_z="1 : 0.5 : 1"
       inkscape:vp_y="0 : 1000 : 0"
       inkscape:vp_x="0 : 0.5 : 1"
       sodipodi:type="inkscape:persp3d" />
    <inkscape:perspective
       id="perspective3651-4"
       inkscape:persp3d-origin="0.5 : 0.33333333 : 1"
       inkscape:vp_z="1 : 0.5 : 1"
       inkscape:vp_y="0 : 1000 : 0"
       inkscape:vp_x="0 : 0.5 : 1"
       sodipodi:type="inkscape:persp3d" />
    <inkscape:perspective
       id="perspective3651-9"
       inkscape:persp3d-origin="0.5 : 0.33333333 : 1"
       inkscape:vp_z="1 : 0.5 : 1"
       inkscape:vp_y="0 : 1000 : 0"
       inkscape:vp_x="0 : 0.5 : 1"
       sodipodi:type="inkscape:persp3d" />
    <inkscape:perspective
       id="perspective3697"
       inkscape:persp3d-origin="0.5 : 0.33333333 : 1"
       inkscape:vp_z="1 : 0.5 : 1"
       inkscape:vp_y="0 : 1000 : 0"
       inkscape:vp_x="0 : 0.5 : 1"
       sodipodi:type="inkscape:persp3d" />
    <inkscape:perspective
       id="perspective3751"
       inkscape:persp3d-origin="0.5 : 0.33333333 : 1"
       inkscape:vp_z="1 : 0.5 : 1"
       inkscape:vp_y="0 : 1000 : 0"
       inkscape:vp_x="0 : 0.5 : 1"
       sodipodi:type="inkscape:persp3d" />
    <inkscape:perspective
       id="perspective3773"
       inkscape:persp3d-origin="0.5 : 0.33333333 : 1"
       inkscape:vp_z="1 : 0.5 : 1"
       inkscape:vp_y="0 : 1000 : 0"
       inkscape:vp_x="0 : 0.5 : 1"
       sodipodi:type="inkscape:persp3d" />
    <inkscape:perspective
       id="perspective3180"
       inkscape:persp3d-origin="0.5 : 0.33333333 : 1"
       inkscape:vp_z="1 : 0.5 : 1"
       inkscape:vp_y="0 : 1000 : 0"
       inkscape:vp_x="0 : 0.5 : 1"
       sodipodi:type="inkscape:persp3d" />
    <inkscape:perspective
       id="perspective3220"
       inkscape:persp3d-origin="0.5 : 0.33333333 : 1"
       inkscape:vp_z="1 : 0.5 : 1"
       inkscape:vp_y="0 : 1000 : 0"
       inkscape:vp_x="0 : 0.5 : 1"
       sodipodi:type="inkscape:persp3d" />
    <inkscape:perspective
       id="perspective3264"
       inkscape:persp3d-origin="0.5 : 0.33333333 : 1"
       inkscape:vp_z="1 : 0.5 : 1"
       inkscape:vp_y="0 : 1000 : 0"
       inkscape:vp_x="0 : 0.5 : 1"
       sodipodi:type="inkscape:persp3d" />
    <inkscape:perspective
       id="perspective4058"
       inkscape:persp3d-origin="0.5 : 0.33333333 : 1"
       inkscape:vp_z="1 : 0.5 : 1"
       inkscape:vp_y="0 : 1000 : 0"
       inkscape:vp_x="0 : 0.5 : 1"
       sodipodi:type="inkscape:persp3d" />
    <inkscape:perspective
       id="perspective4080"
       inkscape:persp3d-origin="0.5 : 0.33333333 : 1"
       inkscape:vp_z="1 : 0.5 : 1"
       inkscape:vp_y="0 : 1000 : 0"
       inkscape:vp_x="0 : 0.5 : 1"
       sodipodi:type="inkscape:persp3d" />
    <inkscape:perspective
       id="perspective4102"
       inkscape:persp3d-origin="0.5 : 0.33333333 : 1"
       inkscape:vp_z="1 : 0.5 : 1"
       inkscape:vp_y="0 : 1000 : 0"
       inkscape:vp_x="0 : 0.5 : 1"
       sodipodi:type="inkscape:persp3d" />
    <inkscape:perspective
       id="perspective4146"
       inkscape:persp3d-origin="0.5 : 0.33333333 : 1"
       inkscape:vp_z="1 : 0.5 : 1"
       inkscape:vp_y="0 : 1000 : 0"
       inkscape:vp_x="0 : 0.5 : 1"
       sodipodi:type="inkscape:persp3d" />
    <inkscape:perspective
       id="perspective4168"
       inkscape:persp3d-origin="0.5 : 0.33333333 : 1"
       inkscape:vp_z="1 : 0.5 : 1"
       inkscape:vp_y="0 : 1000 : 0"
       inkscape:vp_x="0 : 0.5 : 1"
       sodipodi:type="inkscape:persp3d" />
    <inkscape:perspective
       id="perspective4190"
       inkscape:persp3d-origin="0.5 : 0.33333333 : 1"
       inkscape:vp_z="1 : 0.5 : 1"
       inkscape:vp_y="0 : 1000 : 0"
       inkscape:vp_x="0 : 0.5 : 1"
       sodipodi:type="inkscape:persp3d" />
    <inkscape:perspective
       id="perspective4212"
       inkscape:persp3d-origin="0.5 : 0.33333333 : 1"
       inkscape:vp_z="1 : 0.5 : 1"
       inkscape:vp_y="0 : 1000 : 0"
       inkscape:vp_x="0 : 0.5 : 1"
       sodipodi:type="inkscape:persp3d" />
    <inkscape:perspective
       id="perspective4235"
       inkscape:persp3d-origin="0.5 : 0.33333333 : 1"
       inkscape:vp_z="1 : 0.5 : 1"
       inkscape:vp_y="0 : 1000 : 0"
       inkscape:vp_x="0 : 0.5 : 1"
       sodipodi:type="inkscape:persp3d" />
  </defs>
  <sodipodi:namedview
     id="base"
     pagecolor="#ffffff"
     bordercolor="#666666"
     borderopacity="1.0"
     inkscape:pageopacity="0.0"
     inkscape:pageshadow="2"
     inkscape:zoom="1.979899"
     inkscape:cx="75.742274"
     inkscape:cy="861.40976"
     inkscape:document-units="px"
     inkscape:current-layer="text2816"
     showgrid="false"
     inkscape:window-width="1440"
     inkscape:window-height="878"
     inkscape:window-x="-8"
     inkscape:window-y="1042"
     inkscape:window-maximized="1"
     showguides="true"
     inkscape:guide-bbox="true" />
  <metadata
     id="metadata7">
    <rdf:RDF>
      <cc:Work
         rdf:about="">
        <dc:format>image/svg+xml</dc:format>
        <dc:type
           rdf:resource="http://purl.org/dc/dcmitype/StillImage" />
        <dc:title />
      </cc:Work>
    </rdf:RDF>
  </metadata>
  <g
     inkscape:label="Layer 1"
     inkscape:groupmode="layer"
     id="layer1">
    <g
       style="font-size:40px;font-style:normal;font-weight:normal;fill:#000000;fill-opacity:1;stroke:none;font-family:Bitstream Vera Sans"
       id="text2816">
      <path
         d="m 181.73374,207.86004 c -2.08482,-0.99703 -4.19979,-1.49555 -6.34498,-1.4956 -4.8947,5e-5 -8.06719,1.99417 -9.51744,5.98241 -0.54387,1.4503 -0.8158,3.39911 -0.81578,5.84643 l 0,17.99251 -14.86536,0 0,-42.05808 14.86536,0 0,6.88882 c 1.5711,-2.4473 3.2631,-4.21481 5.07598,-5.30256 2.4473,-1.45024 5.34786,-2.17538 8.70167,-2.17542 0.78551,4e-5 1.75237,0.0455 2.90055,0.13598 z"
         style="fill:#0dc0d5;fill-opacity:1;font-family:Aharoni;-inkscape-font-specification:Aharoni"
         id="path2825" />
      <path
         sodipodi:type="arc"
         style="font-size:40px;font-style:normal;font-weight:normal;fill:#0dc0d5;fill-opacity:1;stroke:none;font-family:Bitstream Vera Sans"
         id="path2843-7-0"
         sodipodi:cx="146.97719"
         sodipodi:cy="115.95078"
         sodipodi:rx="5.5558391"
         sodipodi:ry="5.5558391"
         d="m 152.53303,115.95078 a 5.5558391,5.5558391 0 1 1 -11.11168,0 5.5558391,5.5558391 0 1 1 11.11168,0 z"
         transform="matrix(7.018578,0,0,7.018578,-952.28514,-599.30458)" />
      <path
         d="m 232.61819,216.6179 -31.27163,0 c -2e-5,6.31477 3.0516,9.47213 9.15488,9.47213 3.11204,0 5.49894,-1.3294 7.16076,-3.98826 l 14.36683,0 c -1.14821,3.80699 -2.84018,6.75286 -5.07598,8.83762 -4.04874,3.77678 -9.47217,5.66516 -16.27032,5.66516 -8.64127,0 -15.13731,-2.62862 -19.48812,-7.88589 -3.26313,-3.92782 -4.8947,-8.71676 -4.89468,-14.36681 -2e-5,-6.70753 2.03944,-12.16116 6.11834,-16.36095 4.07891,-4.19973 9.8347,-6.29962 17.26739,-6.29967 9.15486,5e-5 15.69619,3.3236 19.62408,9.97068 2.20559,3.74657 3.3084,8.0974 3.30845,13.05251 z m -13.86829,-8.5204 c -1.05752,-4.65293 -3.88254,-6.97941 -8.47505,-6.97946 -2.53801,5e-5 -4.59258,0.7403 -6.16369,2.22074 -1.23881,1.17839 -2.02438,2.76463 -2.35671,4.75872 z"
         style="fill:#0dc0d5;fill-opacity:1;font-family:Aharoni;-inkscape-font-specification:Aharoni"
         id="path2827" />
      <image
         y="181.42801"
         x="308.16403"
         id="image2839"
         height="52.857143"
         width="136.25397"
         xlink:href="file:///C:/Users/pajoma/workspace/sapience-svn/documentation/media/core-logo/52north.png" />
      <path
         sodipodi:type="arc"
         style="font-size:40px;font-style:normal;font-weight:normal;fill:#ffffff;fill-opacity:1;stroke:none;font-family:Bitstream Vera Sans"
         id="path2843-7"
         sodipodi:cx="146.97719"
         sodipodi:cy="115.95078"
         sodipodi:rx="5.5558391"
         sodipodi:ry="5.5558391"
         d="m 152.53303,115.95078 a 5.5558391,5.5558391 0 1 1 -11.11168,0 5.5558391,5.5558391 0 1 1 11.11168,0 z"
         transform="matrix(4.0767917,0,0,4.0767917,-519.90966,-258.20215)" />
      <path
         sodipodi:type="arc"
         style="font-size:40px;font-style:normal;font-weight:normal;fill:#ffffff;fill-opacity:1;stroke:none;font-family:Bitstream Vera Sans"
         id="path2843-7-9"
         sodipodi:cx="146.97719"
         sodipodi:cy="115.95078"
         sodipodi:rx="5.5558391"
         sodipodi:ry="5.5558391"
         d="m 152.53303,115.95078 a 5.5558391,5.5558391 0 1 1 -11.11168,0 5.5558391,5.5558391 0 1 1 11.11168,0 z"
         transform="matrix(6.1517113,0,0,6.1517113,-783.76076,-498.07641)" />
      <text
         xml:space="preserve"
         style="font-size:40px;font-style:normal;font-weight:normal;fill:#525558;fill-opacity:0.98431373;stroke:none;font-family:Kartika;-inkscape-font-specification:Kartika"
         x="383.51495"
         y="568.58887"
         id="text3617"><tspan
           sodipodi:role="line"
           id="tspan3619"
           x="383.51495"
           y="568.58887"
           style="font-style:normal;font-variant:normal;font-weight:normal;font-stretch:normal;font-family:Vrinda;-inkscape-font-specification:Vrinda"><tspan
   style="font-style:normal;font-variant:normal;font-weight:normal;font-stretch:normal;fill:#525558;fill-opacity:0.60818715;font-family:Vrinda;-inkscape-font-specification:Vrinda"
   id="tspan3721"> SWRL</tspan>Spatial</tspan></text>
      <path
         sodipodi:type="arc"
         style="font-size:40px;font-style:normal;font-weight:normal;fill:#64c5e4;fill-opacity:0.78431373;stroke:none;font-family:Bitstream Vera Sans"
         id="path2843-1-7"
         sodipodi:cx="146.97719"
         sodipodi:cy="115.95078"
         sodipodi:rx="5.5558391"
         sodipodi:ry="5.5558391"
         d="m 152.53303,115.95078 a 5.5558391,5.5558391 0 1 1 -11.11168,0 5.5558391,5.5558391 0 1 1 11.11168,0 z"
         transform="matrix(1.5454545,0,0,1.5454545,419.133,319.79745)" />
      <path
         sodipodi:type="arc"
         style="font-size:40px;font-style:normal;font-weight:normal;fill:#64c5e4;fill-opacity:0.58823529;stroke:none;font-family:Bitstream Vera Sans"
         id="path2843-1-0"
         sodipodi:cx="146.97719"
         sodipodi:cy="115.95078"
         sodipodi:rx="5.5558391"
         sodipodi:ry="5.5558391"
         d="m 152.53303,115.95078 a 5.5558391,5.5558391 0 1 1 -11.11168,0 5.5558391,5.5558391 0 1 1 11.11168,0 z"
         transform="matrix(1.1818182,0,0,1.1818182,466.26259,389.23549)" />
      <path
         sodipodi:type="arc"
         style="font-size:40px;font-style:normal;font-weight:normal;fill:#64c5e4;fill-opacity:1;stroke:none;font-family:Bitstream Vera Sans"
         id="path2843-1-8"
         sodipodi:cx="146.97719"
         sodipodi:cy="115.95078"
         sodipodi:rx="5.5558391"
         sodipodi:ry="5.5558391"
         d="m 152.53303,115.95078 a 5.5558391,5.5558391 0 1 1 -11.11168,0 5.5558391,5.5558391 0 1 1 11.11168,0 z"
         transform="matrix(1.9090909,0,0,1.9090909,332.56978,292.08522)" />
      <text
         xml:space="preserve"
         style="font-size:130px;font-style:normal;font-weight:normal;fill:#000000;fill-opacity:0.57894736;stroke:none;font-family:Bitstream Vera Sans"
         x="186.64423"
         y="504.98773"
         id="text3727"><tspan
           sodipodi:role="line"
           id="tspan3729"
           x="186.64423"
           y="504.98773"
           style="font-size:130px;font-style:normal;font-variant:normal;font-weight:bold;font-stretch:normal;fill:#000000;fill-opacity:0.57894736;font-family:Aharoni;-inkscape-font-specification:Aharoni Bold">o</tspan></text>
      <text
         xml:space="preserve"
         style="font-size:215.88923645px;font-style:normal;font-weight:normal;fill:#000000;fill-opacity:0.57894736;stroke:none;font-family:Bitstream Vera Sans"
         x="-31.013123"
         y="517.23047"
         id="text3731"><tspan
           sodipodi:role="line"
           id="tspan3733"
           x="-31.013123"
           y="517.23047"
           style="fill:#000000;fill-opacity:0.57894736;font-family:Aharoni;-inkscape-font-specification:Aharoni">c</tspan></text>
      <text
         xml:space="preserve"
         style="font-size:130px;font-style:normal;font-weight:normal;fill:#000000;fill-opacity:0.57894737;stroke:none;font-family:Aharoni;-inkscape-font-specification:Aharoni"
         x="230.74118"
         y="429.71777"
         id="text3735"><tspan
           sodipodi:role="line"
           id="tspan3737"
           x="230.74118"
           y="429.71777">r</tspan></text>
      <text
         xml:space="preserve"
         style="font-size:130px;font-style:normal;font-weight:normal;fill:#000000;fill-opacity:0.57894737;stroke:none;font-family:Aharoni;-inkscape-font-specification:Aharoni"
         x="282.48233"
         y="428.95605"
         id="text3739"><tspan
           sodipodi:role="line"
           id="tspan3741"
           x="282.48233"
           y="428.95605">e</tspan></text>
      <path
         sodipodi:type="arc"
         style="font-size:40px;font-style:normal;font-weight:normal;fill:#64c5e4;fill-opacity:1;stroke:none;font-family:Bitstream Vera Sans"
         id="path2843-8"
         sodipodi:cx="146.97719"
         sodipodi:cy="115.95078"
         sodipodi:rx="5.5558391"
         sodipodi:ry="5.5558391"
         d="m 152.53303,115.95078 a 5.5558391,5.5558391 0 1 1 -11.11168,0 5.5558391,5.5558391 0 1 1 11.11168,0 z"
         transform="matrix(2.3204458,0,0,2.3204458,-203.67185,130.74613)" />
      <g
         style="font-size:205.95855713px;fill:#000000;fill-opacity:0.57894736;font-family:Bitstream Vera Sans"
         id="text3727-2">
        <path
           d="m 189.73738,399.45479 c -1.2e-4,12.93949 -4.2574,24.03523 -12.77185,33.28725 -10.32484,11.26336 -24.77276,16.89504 -43.34382,16.89504 -18.63822,0 -33.11966,-5.63168 -43.444378,-16.89504 -8.514575,-9.25202 -12.771852,-20.61593 -12.771844,-34.09177 -8e-6,-12.13487 4.290791,-22.89539 12.872409,-32.28159 10.391763,-11.33031 25.174903,-16.99551 44.349473,-16.99561 17.63244,1e-4 31.71162,5.6653 42.2376,16.99561 8.58149,9.25211 12.87229,20.28081 12.87241,33.08611 z m -23.93577,-0.35714 c -8e-5,-6.03389 -1.05729,-16.50312 -5.31449,-20.69342 -4.25736,-4.19017 -20.83153,-8.07099 -26.86541,-8.07106 -6.83852,7e-5 -19.18886,1.4763 -23.47961,6.57156 -3.48632,4.08973 -11.658036,16.60641 -11.657996,21.83577 -4e-5,5.29651 4.957386,14.98957 11.657996,22.65063 4.29075,5.09536 10.56966,9.07159 23.47961,10.143 6.08002,0.50459 20.19186,-6.02367 24.41569,-10.21393 4.22368,-4.1902 7.76413,-16.12152 7.76421,-22.22255 z"
           style="font-variant:normal;font-weight:bold;font-stretch:normal;fill:#000000;font-family:Aharoni;-inkscape-font-specification:Aharoni Bold"
           id="path3791"
           sodipodi:nodetypes="ccscscscccsscscssc" />
      </g>
      <flowRoot
         transform="matrix(2.6990433,0,0,2.6990433,-536.05639,-225.4789)"
         xml:space="preserve"
         id="flowRoot2816-49-5-4-6-1-1"
         style="font-size:40px;font-style:normal;font-weight:normal;text-align:end;text-anchor:end;fill:#0dc0d5;fill-opacity:1;stroke:none;font-family:Bitstream Vera Sans Mono;-inkscape-font-specification:Bitstream Vera Sans Mono"
         inkscape:transform-center-x="47.119348"
         inkscape:transform-center-y="-46.153642"
         inkscape:export-filename="C:\Users\pajoma\workspace\sapience-svn\user\pajoma\sapience-service-proxy-gae\war\html\logo.png"
         inkscape:export-xdpi="100"
         inkscape:export-ydpi="100"><flowRegion
           id="flowRegion2818-94-9-9-1-3-7"><rect
             id="rect2820-5-2-4-3-3-4"
             width="219.62743"
             height="34.081215"
             x="80"
             y="103.79076"
             style="text-align:end;text-anchor:end;fill:#0dc0d5;fill-opacity:1;font-family:Bitstream Vera Sans Mono;-inkscape-font-specification:Bitstream Vera Sans Mono" /></flowRegion><flowPara
           style="font-size:18.44508553px;font-style:normal;font-variant:normal;font-weight:normal;font-stretch:normal;text-align:end;line-height:60.00000238%;writing-mode:lr-tb;text-anchor:end;fill:#0dc0d5;fill-opacity:1;font-family:Delicious;-inkscape-font-specification:Delicious"
           id="flowPara2975"> semantic</flowPara><flowPara
           style="font-size:18.44508553px;font-style:normal;font-variant:normal;font-weight:normal;font-stretch:normal;text-align:end;line-height:60.00000238%;writing-mode:lr-tb;text-anchor:end;fill:#0dc0d5;fill-opacity:1;font-family:Delicious;-inkscape-font-specification:Delicious"
           id="flowPara3117">annotations</flowPara></flowRoot>      <text
         xml:space="preserve"
         style="font-size:33.18938828px;font-style:normal;font-weight:normal;fill:#b3ff2b;fill-opacity:0.55294118;stroke:none;font-family:Arabic Typesetting;-inkscape-font-specification:Arabic Typesetting"
         x="272.32092"
         y="76.40049"
         id="text3123"
         inkscape:export-filename="C:\Users\pajoma\workspace\sapience-svn\user\pajoma\sapience-service-proxy-gae\war\html\logo.png"
         inkscape:export-xdpi="100"
         inkscape:export-ydpi="100"><tspan
           sodipodi:role="line"
           id="tspan3125"
           x="272.32092"
           y="76.40049"
           style="font-size:49.78408051px;font-style:normal;font-variant:normal;font-weight:normal;font-stretch:normal;fill:#b3ff2b;fill-opacity:0.55294118;font-family:Delicious;-inkscape-font-specification:Delicious">proxy</tspan></text>
      <path
         style="fill:#b3ff2b;fill-opacity:1;stroke:none"
         d="m 208.21502,172.55048 c -1.15985,-0.84418 -1.95865,-3.862 -3.0885,-11.6679 -0.39304,-2.71544 -0.86852,-5.23478 -1.05662,-5.59853 -0.896,-1.73265 -2.12048,-2.02337 -3.86432,-0.91744 -1.74887,1.10909 -2.52622,2.6362 -5.47711,10.7597 -2.3233,6.39582 -2.79968,7.28116 -3.91768,7.28082 -1.50263,-4.2e-4 -5.62531,-2.54846 -7.50363,-4.63761 -1.33292,-1.48253 -1.37217,-2.09067 -0.2328,-3.60786 1.28108,-1.7059 1.71079,-2.13365 6.64179,-6.61148 2.52469,-2.29265 4.78661,-4.49033 5.02651,-4.88374 0.5799,-0.95099 0.5511,-1.59803 -0.10509,-2.3609 -0.45244,-0.52599 -0.77368,-0.64795 -1.92626,-0.73133 -1.31916,-0.0954 -1.66639,0.0131 -7.48924,2.34292 -6.5581,2.62387 -9.48931,3.54377 -10.49098,3.29236 -0.81993,-0.20579 -1.38575,-1.50864 -1.87451,-4.31624 -0.45138,-2.59299 -0.3506,-5.75545 0.21852,-6.85598 0.28456,-0.55027 0.58997,-0.77278 1.22394,-0.89172 1.27015,-0.23829 5.3313,0.0701 11.02617,0.83733 6.05093,0.81517 7.3179,0.85784 7.85481,0.26458 0.49878,-0.55117 0.48819,-1.49132 -0.022,-1.94823 -0.22248,-0.19926 -2.48479,-1.4725 -5.02737,-2.82943 -6.35276,-3.39036 -10.42446,-5.83128 -11.61653,-6.9639 -0.87141,-0.82793 -0.98319,-1.04147 -0.84706,-1.61799 0.26333,-1.11522 1.02649,-2.1961 2.96185,-4.19504 2.1332,-2.20327 3.82524,-3.39667 4.50845,-3.17982 1.0298,0.32685 4.19038,4.24233 9.94686,12.32264 1.56494,2.19668 3.03402,4.09495 3.26462,4.21836 1.29774,0.69453 2.76111,-0.34728 2.76111,-1.96571 0,-0.53422 -0.6689,-3.35444 -1.48645,-6.26713 -2.54552,-9.06901 -2.76655,-11.34577 -1.172,-12.0723 1.79392,-0.81736 6.77701,-0.93627 9.13044,-0.21788 l 1.04015,0.3175 -0.0177,2.06717 c -0.0112,1.32274 -0.41941,4.46181 -1.13326,8.71674 -0.98249,5.85624 -1.08266,6.75952 -0.83958,7.57087 0.35221,1.17557 1.1282,1.71154 2.15444,1.48809 0.80748,-0.17581 2.22319,-1.54104 10.00665,-9.64982 4.20742,-4.38328 4.41543,-4.51728 5.84753,-3.767 1.83176,0.95964 4.66184,5.41988 4.6669,7.35512 0.002,0.77487 -0.13105,0.96803 -1.29784,1.88382 -1.6506,1.29548 -4.81089,3.16807 -10.37262,6.14614 -4.4865,2.40232 -5.89415,3.47075 -5.89415,4.47371 0,1.41756 1.13381,1.64072 10.17029,2.00187 7.21049,0.28816 9.33713,0.58954 10.01221,1.41887 1.22447,1.50425 -0.92697,9.03199 -2.86826,10.03587 -0.54045,0.27948 -0.76723,0.28148 -1.52674,0.0135 -1.66551,-0.58762 -4.7952,-2.27048 -9.61215,-5.16852 -3.93831,-2.36941 -4.97331,-2.89463 -5.7439,-2.91484 -0.72554,-0.0189 -1.04012,0.0991 -1.37913,0.51772 -0.59473,0.73446 -0.55519,1.20078 0.2333,2.7514 0.86251,1.69619 2.31858,3.73669 5.64447,7.91005 1.46904,1.84337 2.89752,3.80408 3.17439,4.35714 0.49965,0.99804 0.50007,1.01014 0.0569,1.618 -0.62777,0.86108 -3.38073,2.6826 -5.11401,3.38374 -1.88327,0.7618 -3.90565,0.97943 -4.57492,0.4923 z m -4.8752,-22.24437 c 1.67472,-0.84614 2.5187,-2.09928 2.54402,-3.77732 0.0418,-2.77341 -2.85476,-4.90856 -5.6499,-4.16468 -5.11644,1.36167 -4.16225,8.31479 1.14117,8.31558 0.67373,1e-4 1.55785,-0.16801 1.96471,-0.37358 z"
         id="path3769-5" />
      <path
         d="m 90.803779,335.82027 c -12.87543,10.02557 -22.70563,9.27291 -28.24755,9.27291 -12.56839,0 -22.539,-4.25541 -29.91173,-12.76628 -5.93781,-6.87794 -8.90675,-14.84447 -8.90671,-23.89968 -4e-5,-9.10462 2.9689,-17.07117 8.90671,-23.89971 7.37273,-8.5108 17.34334,-12.76621 29.91173,-12.76628 5.64086,7e-5 14.55414,-0.0186 28.70598,9.92461 l -12.82232,14.64308 c -4.30498,-3.01834 -7.88727,-4.40129 -12.61789,-4.52756 -4.73062,-0.12627 -9.325003,0.58578 -12.907943,3.91837 -3.551616,3.30346 -5.507895,7.85829 -5.507845,12.70749 -5e-5,4.84924 1.204573,8.45371 5.760383,12.5812 3.293169,2.98355 7.806165,4.04468 12.655405,4.04468 4.05749,0 8.26343,-1.48444 12.61789,-4.4534 l 12.36389,15.22057 z"
         style="font-size:40px;font-style:normal;font-weight:normal;fill:#0dc0d5;fill-opacity:1;stroke:none;font-family:Aharoni;-inkscape-font-specification:Aharoni"
         id="path2821-4"
         sodipodi:nodetypes="cscscscczzssscc" />
      <path
         d="m 138.52618,308.41094 c -5e-5,5.83135 -1.91864,10.83179 -5.7558,15.00133 -4.65301,5.07598 -11.16415,7.61397 -19.53344,7.61397 -8.39955,0 -14.925783,-2.53799 -19.578773,-7.61397 -3.83718,-4.16954 -5.755791,-9.29083 -5.755771,-15.3639 -2e-5,-5.46871 1.933701,-10.3181 5.801121,-14.54811 4.68317,-5.10614 11.345373,-7.65923 19.986653,-7.65928 7.94627,5e-5 14.29123,2.55314 19.03489,7.65928 3.86737,4.16959 5.80107,9.13982 5.80112,14.91068 z m -15.45452,0 c -5e-5,-2.71924 -0.95934,-5.02307 -2.87791,-6.91147 -1.91864,-1.88836 -4.23755,-2.83255 -6.95681,-2.83257 -3.08186,2e-5 -5.58963,1.14816 -7.52331,3.4444 -1.57117,1.84308 -2.35673,3.94297 -2.35671,6.29964 -2e-5,2.38695 0.78554,4.50194 2.35671,6.34498 1.93368,2.29629 4.44145,3.44442 7.52331,3.4444 2.74947,2e-5 5.07595,-0.94417 6.97948,-2.83257 1.90344,-1.88835 2.85519,-4.20729 2.85524,-6.95681 z"
         style="font-size:40px;font-style:normal;font-weight:normal;fill:#0dc0d5;fill-opacity:1;stroke:none;font-family:Aharoni;-inkscape-font-specification:Aharoni"
         id="path2823-8" />
      <path
         sodipodi:type="arc"
         style="font-size:40px;font-style:normal;font-weight:normal;fill:#0dc0d5;fill-opacity:1;stroke:none;font-family:Bitstream Vera Sans"
         id="path2843-7-9-8"
         sodipodi:cx="146.97719"
         sodipodi:cy="115.95078"
         sodipodi:rx="5.5558391"
         sodipodi:ry="5.5558391"
         d="m 152.53303,115.95078 a 5.5558391,5.5558391 0 1 1 -11.11168,0 5.5558391,5.5558391 0 1 1 11.11168,0 z"
         transform="matrix(4.2875207,0,0,4.2875207,-507.76726,-281.92205)" />
      <path
         sodipodi:type="arc"
         style="font-size:40px;font-style:normal;font-weight:normal;fill:#ffffff;fill-opacity:1;stroke:none;font-family:Bitstream Vera Sans"
         id="path2843-2"
         sodipodi:cx="146.97719"
         sodipodi:cy="115.95078"
         sodipodi:rx="5.5558391"
         sodipodi:ry="5.5558391"
         d="m 152.53303,115.95078 a 5.5558391,5.5558391 0 1 1 -11.11168,0 5.5558391,5.5558391 0 1 1 11.11168,0 z"
         transform="matrix(2.3535332,0,0,2.3535332,-223.51521,-57.674683)" />
      <path
         sodipodi:type="arc"
         style="font-size:40px;font-style:normal;font-weight:normal;fill:#b3ff2b;fill-opacity:1;stroke:none;font-family:Bitstream Vera Sans"
         id="path2843-2-5"
         sodipodi:cx="146.97719"
         sodipodi:cy="115.95078"
         sodipodi:rx="5.5558391"
         sodipodi:ry="5.5558391"
         d="m 152.53303,115.95078 a 5.5558391,5.5558391 0 1 1 -11.11168,0 5.5558391,5.5558391 0 1 1 11.11168,0 z"
         transform="matrix(2.4898968,0,0,2.4898968,-286.67231,-74.20045)" />
    </g>
  </g>
</svg>
