<?xml version="1.0" encoding="UTF-8" standalone="no"?>
<!-- Created with Inkscape (http://www.inkscape.org/) -->

<svg
   xmlns:dc="http://purl.org/dc/elements/1.1/"
   xmlns:cc="http://creativecommons.org/ns#"
   xmlns:rdf="http://www.w3.org/1999/02/22-rdf-syntax-ns#"
   xmlns:svg="http://www.w3.org/2000/svg"
   xmlns="http://www.w3.org/2000/svg"
   xmlns:xlink="http://www.w3.org/1999/xlink"
   xmlns:sodipodi="http://sodipodi.sourceforge.net/DTD/sodipodi-0.dtd"
   xmlns:inkscape="http://www.inkscape.org/namespaces/inkscape"
   width="744.09448819"
   height="1052.3622047"
   id="svg2"
   version="1.1"
   inkscape:version="0.47 r22583"
   sodipodi:docname="proxy-designs.svg"
   inkscape:output_extension="org.inkscape.output.svg.inkscape">
  <defs
     id="defs4">
    <linearGradient
       id="linearGradient3811">
      <stop
         style="stop-color:#00cdee;stop-opacity:1;"
         offset="0"
         id="stop3813" />
      <stop
         style="stop-color:#ffffff;stop-opacity:0.63068181;"
         offset="1"
         id="stop3815" />
    </linearGradient>
    <linearGradient
       id="linearGradient3799">
      <stop
         style="stop-color:#ffffff;stop-opacity:0"
         offset="0"
         id="stop3801" />
      <stop
         id="stop3807"
         offset="0.38524625"
         style="stop-color:#ffffff;stop-opacity:1" />
      <stop
         style="stop-color:#ffffff;stop-opacity:1"
         offset="0.63934469"
         id="stop3809" />
      <stop
         style="stop-color:#ffffff;stop-opacity:0;"
         offset="1"
         id="stop3803" />
    </linearGradient>
    <linearGradient
       id="linearGradient3775">
      <stop
         style="stop-color:#ffffff;stop-opacity:0;"
         offset="0"
         id="stop3777" />
      <stop
         id="stop3787"
         offset="0.63674241"
         style="stop-color:#ffffff;stop-opacity:1" />
      <stop
         style="stop-color:#ffffff;stop-opacity:1"
         offset="1"
         id="stop3779" />
    </linearGradient>
    <inkscape:perspective
       sodipodi:type="inkscape:persp3d"
       inkscape:vp_x="0 : 526.18109 : 1"
       inkscape:vp_y="0 : 1000 : 0"
       inkscape:vp_z="744.09448 : 526.18109 : 1"
       inkscape:persp3d-origin="372.04724 : 350.78739 : 1"
       id="perspective10" />
    <inkscape:perspective
       id="perspective2832"
       inkscape:persp3d-origin="0.5 : 0.33333333 : 1"
       inkscape:vp_z="1 : 0.5 : 1"
       inkscape:vp_y="0 : 1000 : 0"
       inkscape:vp_x="0 : 0.5 : 1"
       sodipodi:type="inkscape:persp3d" />
    <inkscape:perspective
       id="perspective2832-5"
       inkscape:persp3d-origin="0.5 : 0.33333333 : 1"
       inkscape:vp_z="1 : 0.5 : 1"
       inkscape:vp_y="0 : 1000 : 0"
       inkscape:vp_x="0 : 0.5 : 1"
       sodipodi:type="inkscape:persp3d" />
    <inkscape:perspective
       id="perspective2832-7"
       inkscape:persp3d-origin="0.5 : 0.33333333 : 1"
       inkscape:vp_z="1 : 0.5 : 1"
       inkscape:vp_y="0 : 1000 : 0"
       inkscape:vp_x="0 : 0.5 : 1"
       sodipodi:type="inkscape:persp3d" />
    <inkscape:perspective
       id="perspective2893"
       inkscape:persp3d-origin="0.5 : 0.33333333 : 1"
       inkscape:vp_z="1 : 0.5 : 1"
       inkscape:vp_y="0 : 1000 : 0"
       inkscape:vp_x="0 : 0.5 : 1"
       sodipodi:type="inkscape:persp3d" />
    <inkscape:perspective
       id="perspective2893-8"
       inkscape:persp3d-origin="0.5 : 0.33333333 : 1"
       inkscape:vp_z="1 : 0.5 : 1"
       inkscape:vp_y="0 : 1000 : 0"
       inkscape:vp_x="0 : 0.5 : 1"
       sodipodi:type="inkscape:persp3d" />
    <inkscape:perspective
       id="perspective2893-6"
       inkscape:persp3d-origin="0.5 : 0.33333333 : 1"
       inkscape:vp_z="1 : 0.5 : 1"
       inkscape:vp_y="0 : 1000 : 0"
       inkscape:vp_x="0 : 0.5 : 1"
       sodipodi:type="inkscape:persp3d" />
    <inkscape:perspective
       id="perspective2893-2"
       inkscape:persp3d-origin="0.5 : 0.33333333 : 1"
       inkscape:vp_z="1 : 0.5 : 1"
       inkscape:vp_y="0 : 1000 : 0"
       inkscape:vp_x="0 : 0.5 : 1"
       sodipodi:type="inkscape:persp3d" />
    <inkscape:perspective
       id="perspective2969"
       inkscape:persp3d-origin="0.5 : 0.33333333 : 1"
       inkscape:vp_z="1 : 0.5 : 1"
       inkscape:vp_y="0 : 1000 : 0"
       inkscape:vp_x="0 : 0.5 : 1"
       sodipodi:type="inkscape:persp3d" />
    <inkscape:perspective
       id="perspective3755"
       inkscape:persp3d-origin="0.5 : 0.33333333 : 1"
       inkscape:vp_z="1 : 0.5 : 1"
       inkscape:vp_y="0 : 1000 : 0"
       inkscape:vp_x="0 : 0.5 : 1"
       sodipodi:type="inkscape:persp3d" />
    <linearGradient
       inkscape:collect="always"
       xlink:href="#linearGradient3775"
       id="linearGradient3785"
       x1="246.07144"
       y1="580.21936"
       x2="246.07144"
       y2="544.14795"
       gradientUnits="userSpaceOnUse"
       gradientTransform="translate(-493.64568,-997.52489)" />
    <linearGradient
       inkscape:collect="always"
       xlink:href="#linearGradient3799"
       id="linearGradient3805"
       x1="245.17856"
       y1="531.64789"
       x2="245.17856"
       y2="575.2193"
       gradientUnits="userSpaceOnUse"
       gradientTransform="matrix(1,0,0,1.1738787,7.8825243,-223.09526)" />
    <inkscape:perspective
       id="perspective3833"
       inkscape:persp3d-origin="0.5 : 0.33333333 : 1"
       inkscape:vp_z="1 : 0.5 : 1"
       inkscape:vp_y="0 : 1000 : 0"
       inkscape:vp_x="0 : 0.5 : 1"
       sodipodi:type="inkscape:persp3d" />
    <linearGradient
       inkscape:collect="always"
       xlink:href="#linearGradient3799-3"
       id="linearGradient3805-9"
       x1="245.17856"
       y1="531.64789"
       x2="245.17856"
       y2="575.2193"
       gradientUnits="userSpaceOnUse"
       gradientTransform="matrix(1,0,0,1.1738787,-8.1906947,-427.84463)" />
    <linearGradient
       id="linearGradient3799-3">
      <stop
         style="stop-color:#ffffff;stop-opacity:0"
         offset="0"
         id="stop3801-0" />
      <stop
         id="stop3807-8"
         offset="0.38524625"
         style="stop-color:#ffffff;stop-opacity:1" />
      <stop
         style="stop-color:#ffffff;stop-opacity:1"
         offset="0.63934469"
         id="stop3809-7" />
      <stop
         style="stop-color:#ffffff;stop-opacity:0;"
         offset="1"
         id="stop3803-6" />
    </linearGradient>
    <linearGradient
       inkscape:collect="always"
       xlink:href="#linearGradient3775-2"
       id="linearGradient3785-5"
       x1="246.07144"
       y1="580.21936"
       x2="246.07144"
       y2="544.14795"
       gradientUnits="userSpaceOnUse"
       gradientTransform="translate(-493.64568,-997.52489)" />
    <linearGradient
       id="linearGradient3775-2">
      <stop
         style="stop-color:#ffffff;stop-opacity:0;"
         offset="0"
         id="stop3777-4" />
      <stop
         id="stop3787-0"
         offset="0.63674241"
         style="stop-color:#ffffff;stop-opacity:1" />
      <stop
         style="stop-color:#ffffff;stop-opacity:1"
         offset="1"
         id="stop3779-0" />
    </linearGradient>
    <linearGradient
       y2="544.14795"
       x2="246.07144"
       y1="580.21936"
       x1="246.07144"
       gradientTransform="translate(-481.59438,-792.49948)"
       gradientUnits="userSpaceOnUse"
       id="linearGradient3855"
       xlink:href="#linearGradient3775-2"
       inkscape:collect="always" />
    <inkscape:perspective
       id="perspective3910"
       inkscape:persp3d-origin="0.5 : 0.33333333 : 1"
       inkscape:vp_z="1 : 0.5 : 1"
       inkscape:vp_y="0 : 1000 : 0"
       inkscape:vp_x="0 : 0.5 : 1"
       sodipodi:type="inkscape:persp3d" />
    <inkscape:perspective
       id="perspective3958"
       inkscape:persp3d-origin="0.5 : 0.33333333 : 1"
       inkscape:vp_z="1 : 0.5 : 1"
       inkscape:vp_y="0 : 1000 : 0"
       inkscape:vp_x="0 : 0.5 : 1"
       sodipodi:type="inkscape:persp3d" />
    <filter
       id="filter3998"
       inkscape:label="Inkblot"
       inkscape:menu="Textures"
       inkscape:menu-tooltip="Inkblot on tissue or rough paper"
       height="1.3"
       y="-0.15000001"
       width="1.3"
       x="-0.15000001">
      <feGaussianBlur
         id="feGaussianBlur4000"
         result="result1"
         in="SourceGraphic"
         stdDeviation="4" />
      <feTurbulence
         id="feTurbulence4002"
         result="result0"
         numOctaves="4"
         baseFrequency="0.050000000000000003"
         type="fractalNoise" />
      <feDisplacementMap
         id="feDisplacementMap4004"
         in2="result0"
         result="result2"
         scale="20"
         yChannelSelector="G"
         xChannelSelector="R"
         in="result1" />
      <feGaussianBlur
         id="feGaussianBlur4006"
         result="result4"
         in="SourceGraphic"
         stdDeviation="3" />
      <feComposite
         id="feComposite4008"
         in2="result2"
         in="result4"
         operator="arithmetic"
         k2="-0.25"
         k3="0.5"
         k1="1.5"
         result="result5" />
    </filter>
    <inkscape:perspective
       id="perspective4018"
       inkscape:persp3d-origin="0.5 : 0.33333333 : 1"
       inkscape:vp_z="1 : 0.5 : 1"
       inkscape:vp_y="0 : 1000 : 0"
       inkscape:vp_x="0 : 0.5 : 1"
       sodipodi:type="inkscape:persp3d" />
    <inkscape:perspective
       id="perspective4178"
       inkscape:persp3d-origin="0.5 : 0.33333333 : 1"
       inkscape:vp_z="1 : 0.5 : 1"
       inkscape:vp_y="0 : 1000 : 0"
       inkscape:vp_x="0 : 0.5 : 1"
       sodipodi:type="inkscape:persp3d" />
    <filter
       id="filter4234"
       inkscape:menu="Textures"
       inkscape:label="Watercolor"
       inkscape:menu-tooltip="Cloudy watercolor effect"
       height="2"
       y="-0.5"
       width="1.5"
       x="-0.25">
      <feGaussianBlur
         id="feGaussianBlur4236"
         stdDeviation="5"
         result="result8" />
      <feTurbulence
         id="feTurbulence4238"
         seed="27"
         result="result7"
         type="fractalNoise"
         numOctaves="5"
         baseFrequency="0.025000000000000001" />
      <feComposite
         id="feComposite4240"
         in2="result8"
         result="result6"
         operator="over"
         in="result7" />
      <feColorMatrix
         id="feColorMatrix4242"
         result="result9"
         values="1 0 0 0 0 0 1 0 0 0 0 0 1 0 0 0 0 0 6 -4 " />
      <feDisplacementMap
         id="feDisplacementMap4244"
         in2="result9"
         in="result7"
         xChannelSelector="A"
         yChannelSelector="A"
         scale="75"
         result="result4" />
      <feComposite
         id="feComposite4246"
         in2="result4"
         result="result2"
         operator="in"
         in="result8" />
      <feComposite
         id="feComposite4248"
         in2="result9"
         result="fbSourceGraphic"
         in="result2"
         operator="in" />
      <feBlend
         id="feBlend4250"
         in2="fbSourceGraphic"
         in="fbSourceGraphic"
         mode="multiply"
         blend="normal" />
    </filter>
    <inkscape:perspective
       id="perspective4260"
       inkscape:persp3d-origin="0.5 : 0.33333333 : 1"
       inkscape:vp_z="1 : 0.5 : 1"
       inkscape:vp_y="0 : 1000 : 0"
       inkscape:vp_x="0 : 0.5 : 1"
       sodipodi:type="inkscape:persp3d" />
    <filter
       color-interpolation-filters="sRGB"
       id="filter4234-3"
       inkscape:menu="Textures"
       inkscape:label="Watercolor"
       inkscape:menu-tooltip="Cloudy watercolor effect"
       height="2"
       y="-0.5"
       width="1.5"
       x="-0.25">
      <feGaussianBlur
         id="feGaussianBlur4236-0"
         stdDeviation="5"
         result="result8" />
      <feTurbulence
         id="feTurbulence4238-7"
         seed="27"
         result="result7"
         type="fractalNoise"
         numOctaves="5"
         baseFrequency="0.025000000000000001" />
      <feComposite
         id="feComposite4240-2"
         in2="result8"
         result="result6"
         operator="over"
         in="result7" />
      <feColorMatrix
         id="feColorMatrix4242-9"
         result="result9"
         values="1 0 0 0 0 0 1 0 0 0 0 0 1 0 0 0 0 0 6 -4 " />
      <feDisplacementMap
         id="feDisplacementMap4244-9"
         in2="result9"
         in="result7"
         xChannelSelector="A"
         yChannelSelector="A"
         scale="75"
         result="result4" />
      <feComposite
         id="feComposite4246-3"
         in2="result4"
         result="result2"
         operator="in"
         in="result8" />
      <feComposite
         id="feComposite4248-0"
         in2="result9"
         result="fbSourceGraphic"
         in="result2"
         operator="in" />
      <feBlend
         id="feBlend4250-2"
         in2="fbSourceGraphic"
         in="fbSourceGraphic"
         mode="multiply"
         blend="normal" />
    </filter>
    <inkscape:perspective
       id="perspective4330"
       inkscape:persp3d-origin="0.5 : 0.33333333 : 1"
       inkscape:vp_z="1 : 0.5 : 1"
       inkscape:vp_y="0 : 1000 : 0"
       inkscape:vp_x="0 : 0.5 : 1"
       sodipodi:type="inkscape:persp3d" />
    <filter
       id="filter4344"
       inkscape:label="Evanescent"
       inkscape:menu="Blurs"
       inkscape:menu-tooltip="Blur the contents of objects, preserving the outline and adding progressive transparency at edges">
      <feColorMatrix
         id="feColorMatrix4346"
         type="matrix"
         values="1 0 0 0 0 0 1 0 0 0 0 0 1 0 0 0 0 0 1 0 "
         result="result7" />
      <feGaussianBlur
         id="feGaussianBlur4348"
         result="result6"
         stdDeviation="5" />
      <feComposite
         id="feComposite4350"
         in2="result7"
         operator="atop"
         in="result6"
         result="result8" />
      <feComposite
         id="feComposite4352"
         in2="result8"
         operator="in"
         result="fbSourceGraphic" />
      <feColorMatrix
         result="fbSourceGraphicAlpha"
         in="fbSourceGraphic"
         values="0 0 0 -1 0 0 0 0 -1 0 0 0 0 -1 0 0 0 0 1 0"
         id="feColorMatrix4354" />
      <feGaussianBlur
         id="feGaussianBlur4356"
         result="result6"
         stdDeviation="3"
         in="fbSourceGraphic" />
      <feColorMatrix
         id="feColorMatrix4358"
         type="matrix"
         values="1 0 0 0 0 0 1 0 0 0 0 0 1 0 0 0 0 0 1 0 "
         result="result7"
         in="fbSourceGraphic" />
      <feComposite
         id="feComposite4360"
         in2="result7"
         operator="in"
         in="result6" />
    </filter>
    <inkscape:perspective
       id="perspective4454"
       inkscape:persp3d-origin="0.5 : 0.33333333 : 1"
       inkscape:vp_z="1 : 0.5 : 1"
       inkscape:vp_y="0 : 1000 : 0"
       inkscape:vp_x="0 : 0.5 : 1"
       sodipodi:type="inkscape:persp3d" />
    <inkscape:perspective
       id="perspective4454-6"
       inkscape:persp3d-origin="0.5 : 0.33333333 : 1"
       inkscape:vp_z="1 : 0.5 : 1"
       inkscape:vp_y="0 : 1000 : 0"
       inkscape:vp_x="0 : 0.5 : 1"
       sodipodi:type="inkscape:persp3d" />
    <filter
       id="filter4555"
       inkscape:label="Wax print"
       inkscape:menu="Textures"
       inkscape:menu-tooltip="Wax print on tissue texture"
       height="1.4"
       y="-0.2"
       width="1.4"
       x="-0.2">
      <feGaussianBlur
         id="feGaussianBlur4557"
         result="result1"
         in="SourceGraphic"
         stdDeviation="2" />
      <feTurbulence
         id="feTurbulence4559"
         result="result0"
         numOctaves="5"
         baseFrequency="0.050000000000000003"
         type="fractalNoise" />
      <feDisplacementMap
         id="feDisplacementMap4561"
         in2="result0"
         result="result2"
         scale="10"
         yChannelSelector="G"
         xChannelSelector="R"
         in="result1" />
      <feColorMatrix
         id="feColorMatrix4563"
         values="1 0 0 0 0 0 1 0 0 0 0 0 1 0 0 0 0 0 10 0 "
         result="result3" />
      <feBlend
         id="feBlend4565"
         in2="result3"
         blend="normal"
         mode="multiply"
         in="result2"
         result="result5" />
      <feGaussianBlur
         id="feGaussianBlur4567"
         result="result4"
         in="result3"
         stdDeviation="5" />
      <feComposite
         id="feComposite4569"
         in2="result5"
         k1="0.5"
         k3="1.5"
         k2="0.15"
         in="result4"
         operator="arithmetic"
         result="result6" />
      <feComposite
         id="feComposite4571"
         in2="result4"
         operator="in"
         in="result6" />
    </filter>
    <inkscape:perspective
       id="perspective4581"
       inkscape:persp3d-origin="0.5 : 0.33333333 : 1"
       inkscape:vp_z="1 : 0.5 : 1"
       inkscape:vp_y="0 : 1000 : 0"
       inkscape:vp_x="0 : 0.5 : 1"
       sodipodi:type="inkscape:persp3d" />
    <inkscape:perspective
       id="perspective2952"
       inkscape:persp3d-origin="0.5 : 0.33333333 : 1"
       inkscape:vp_z="1 : 0.5 : 1"
       inkscape:vp_y="0 : 1000 : 0"
       inkscape:vp_x="0 : 0.5 : 1"
       sodipodi:type="inkscape:persp3d" />
    <inkscape:perspective
       id="perspective3763"
       inkscape:persp3d-origin="0.5 : 0.33333333 : 1"
       inkscape:vp_z="1 : 0.5 : 1"
       inkscape:vp_y="0 : 1000 : 0"
       inkscape:vp_x="0 : 0.5 : 1"
       sodipodi:type="inkscape:persp3d" />
    <inkscape:perspective
       id="perspective3092"
       inkscape:persp3d-origin="0.5 : 0.33333333 : 1"
       inkscape:vp_z="1 : 0.5 : 1"
       inkscape:vp_y="0 : 1000 : 0"
       inkscape:vp_x="0 : 0.5 : 1"
       sodipodi:type="inkscape:persp3d" />
  </defs>
  <sodipodi:namedview
     id="base"
     pagecolor="#ffffff"
     bordercolor="#666666"
     borderopacity="1.0"
     inkscape:pageopacity="0.0"
     inkscape:pageshadow="2"
     inkscape:zoom="0.98994949"
     inkscape:cx="211.38778"
     inkscape:cy="368.41187"
     inkscape:document-units="px"
     inkscape:current-layer="layer1"
     showgrid="false"
     showguides="true"
     inkscape:guide-bbox="true"
     inkscape:window-width="1440"
     inkscape:window-height="878"
     inkscape:window-x="-8"
     inkscape:window-y="1042"
     inkscape:window-maximized="1" />
  <metadata
     id="metadata7">
    <rdf:RDF>
      <cc:Work
         rdf:about="">
        <dc:format>image/svg+xml</dc:format>
        <dc:type
           rdf:resource="http://purl.org/dc/dcmitype/StillImage" />
        <dc:title></dc:title>
      </cc:Work>
    </rdf:RDF>
  </metadata>
  <g
     inkscape:label="Layer 1"
     inkscape:groupmode="layer"
     id="layer1">
    <rect
       style="opacity:1;fill:#ffffff;fill-opacity:1;stroke:#a0a0a0;stroke-opacity:0.98832685"
       id="rect4669"
       width="537.40118"
       height="173.74623"
       x="12.121831"
       y="784.67175"
       ry="28.284271"
       rx="27.274118" />
    <path
       style="fill:#64ff02;fill-opacity:1;stroke:none;filter:url(#filter4234-3)"
       d="m 97.526034,716.03188 c -2.51122,-1.8278 -4.24075,-8.36175 -6.68702,-25.2626 -0.85099,-5.8793 -1.88046,-11.33399 -2.28772,-12.12156 -1.93996,-3.75143 -4.59113,-4.38087 -8.3668,-1.9864 -3.78654,2.40133 -5.46963,5.70775 -11.85869,23.29624 -5.03027,13.84782 -6.06169,15.76472 -8.48231,15.76392 -3.25343,-9e-4 -12.17957,-5.51774 -16.2464,-10.04103 -2.88597,-3.20988 -2.97093,-4.52658 -0.50405,-7.8115 2.77371,-3.69352 3.70409,-4.61964 14.3804,-14.31477 5.46629,-4.9639 10.36366,-9.72218 10.88306,-10.57396 1.25558,-2.05902 1.19321,-3.45996 -0.22754,-5.11167 -0.97957,-1.13884 -1.6751,-1.4029 -4.17061,-1.58342 -2.85614,-0.20659 -3.60794,0.0285 -16.21523,5.07274 -14.19918,5.68104 -20.54564,7.67273 -22.71439,7.12841 -1.77526,-0.44557 -3.00035,-3.26642 -4.05856,-9.34525 -0.97731,-5.61417 -0.7591,-12.46135 0.47311,-14.84414 0.6161,-1.19142 1.27737,-1.67318 2.65001,-1.93069 2.75003,-0.51593 11.54296,0.15182 23.87316,1.81292 13.10108,1.76496 15.84426,1.85735 17.00672,0.57286 1.07995,-1.19334 1.05701,-3.22891 -0.0476,-4.21818 -0.4817,-0.43143 -5.37991,-3.18817 -10.88493,-6.12611 -13.7546,-7.34061 -22.57038,-12.62551 -25.15139,-15.07779 -1.8867,-1.79259 -2.12873,-2.25493 -1.83399,-3.50319 0.57014,-2.41458 2.22247,-4.75485 6.41281,-9.08283 4.61867,-4.77038 8.28216,-7.35424 9.76141,-6.88474 2.22965,0.70767 9.07275,9.18523 21.53632,26.68021 3.3883,4.75611 6.56905,8.86611 7.06834,9.13332 2.80979,1.50375 5.97819,-0.75191 5.97819,-4.25602 0,-1.15668 -1.44827,-7.26282 -3.21838,-13.56919 -5.5114,-19.63565 -5.98995,-24.56515 -2.53754,-26.1382 3.88409,-1.76969 14.67316,-2.02716 19.76868,-0.47174 l 2.25206,0.68745 -0.0382,4.4757 c -0.0243,2.86389 -0.90805,9.66042 -2.45364,18.87294 -2.12724,12.67955 -2.34413,14.63527 -1.81781,16.39197 0.76257,2.54525 2.4427,3.70571 4.66466,3.2219 1.74829,-0.38065 4.8135,-3.33656 21.665756,-20.89318 9.10962,-9.4904 9.55999,-9.78051 12.66069,-8.15608 3.96602,2.07777 10.09353,11.73481 10.10448,15.92486 0.004,1.6777 -0.28375,2.09593 -2.81001,4.07872 -3.57376,2.8049 -10.41624,6.85931 -22.45814,13.30723 -9.71387,5.20136 -12.76164,7.51465 -12.76164,9.6862 0,3.06921 2.45488,3.5524 22.02007,4.33433 15.61172,0.62391 20.21617,1.27642 21.67781,3.07205 2.65114,3.2569 -2.00701,19.5555 -6.21018,21.72903 -1.17013,0.60511 -1.66115,0.60945 -3.3056,0.0292 -3.60605,-1.27229 -10.38226,-4.9159 -20.8116,-11.19055 -8.52699,-5.1301 -10.7679,-6.26729 -12.43633,-6.31104 -1.5709,-0.0411 -2.252016,0.21449 -2.986006,1.12095 -1.28767,1.59019 -1.20206,2.59985 0.50511,5.95714 1.867456,3.67248 5.020056,8.09046 12.221046,17.12635 3.18067,3.99114 6.27353,8.23634 6.873,9.4338 1.08181,2.16089 1.08273,2.18709 0.12327,3.5032 -1.35922,1.86433 -7.31977,5.80819 -11.07255,7.32619 -4.07753,1.6495 -8.456266,2.1206 -9.905316,1.0659 z M 86.970564,667.8698 c 3.62599,-1.83202 5.45333,-4.54524 5.50815,-8.17843 0.0906,-6.00481 -6.18095,-10.6277 -12.2328,-9.01709 -11.07783,2.9482 -9.01188,18.00265 2.47078,18.00436 1.45872,2.1e-4 3.37297,-0.36376 4.25387,-0.80884 z"
       id="path3769-9-7"
       transform="matrix(1.2045438,0,0,1.2045438,355.34087,74.506067)" />
    <rect
       style="opacity:0.81886793999999985;fill:url(#linearGradient3785);fill-opacity:1"
       id="rect3773"
       width="193.57143"
       height="36.071426"
       x="-344.35995"
       y="-453.37692"
       transform="matrix(-0.99980735,0.01962801,-0.01962801,-0.99980735,0,0)" />
    <path
       style="fill:#52e32b;fill-opacity:1;stroke:none;stroke-opacity:1;stroke-width:0.29999999999999999;stroke-miterlimit:4;stroke-dasharray:none"
       d="m 257.24615,461.16932 c -2.51122,-1.82779 -4.24075,-8.36176 -6.68702,-25.26261 -0.85099,-5.8793 -1.88046,-11.33399 -2.28772,-12.12156 -1.93996,-3.75143 -4.59113,-4.38087 -8.3668,-1.9864 -3.78653,2.40133 -5.46962,5.70775 -11.85868,23.29624 -5.03027,13.84782 -6.06169,15.76469 -8.48231,15.76396 -3.25343,-9.2e-4 -12.17957,-5.51778 -16.2464,-10.04107 -2.88597,-3.20988 -2.97093,-4.52658 -0.50405,-7.8115 2.77371,-3.69352 3.70409,-4.61964 14.3804,-14.31477 5.46629,-4.9639 10.36366,-9.72218 10.88306,-10.57396 1.25558,-2.05902 1.19321,-3.45996 -0.22754,-5.11167 -0.97957,-1.13884 -1.6751,-1.4029 -4.17061,-1.58342 -2.85614,-0.20659 -3.60794,0.0285 -16.21523,5.07274 -14.19918,5.68104 -20.54565,7.67273 -22.7144,7.12841 -1.77526,-0.44557 -3.00035,-3.26642 -4.05856,-9.34525 -0.97731,-5.61417 -0.7591,-12.46135 0.47311,-14.84414 0.6161,-1.19142 1.27737,-1.67318 2.65001,-1.93069 2.75003,-0.51593 11.54297,0.15182 23.87317,1.81292 13.10108,1.76496 15.84426,1.85735 17.00672,0.57286 1.07995,-1.19334 1.05701,-3.22891 -0.0476,-4.21818 -0.4817,-0.43143 -5.37991,-3.18817 -10.88493,-6.12611 -13.7546,-7.34061 -22.57038,-12.62551 -25.15139,-15.07779 -1.88671,-1.79259 -2.12874,-2.25493 -1.834,-3.50319 0.57015,-2.41458 2.22248,-4.75485 6.41282,-9.08283 4.61867,-4.77038 8.28216,-7.35424 9.76141,-6.88474 2.22965,0.70767 9.07275,9.18523 21.53632,26.68021 3.3883,4.75611 6.56905,8.86611 7.06834,9.13332 2.80979,1.50375 5.97818,-0.75191 5.97818,-4.25602 0,-1.15668 -1.44826,-7.26282 -3.21837,-13.56919 -5.5114,-19.63565 -5.98995,-24.56515 -2.53754,-26.1382 3.88409,-1.76969 14.67315,-2.02716 19.76867,-0.47174 l 2.25206,0.68745 -0.0382,4.4757 c -0.0243,2.86389 -0.90805,9.66042 -2.45364,18.87294 -2.12724,12.67955 -2.34413,14.63527 -1.81781,16.39197 0.76257,2.54525 2.4427,3.70571 4.66466,3.2219 1.74829,-0.38065 4.8135,-3.33656 21.66576,-20.89318 9.10962,-9.4904 9.55999,-9.78051 12.66069,-8.15608 3.96602,2.07777 10.09353,11.73481 10.10448,15.92486 0.004,1.6777 -0.28375,2.09593 -2.81001,4.07872 -3.57376,2.8049 -10.41624,6.85931 -22.45814,13.30723 -9.71387,5.20136 -12.76164,7.51465 -12.76164,9.6862 0,3.06921 2.45488,3.5524 22.02007,4.33433 15.61172,0.62391 20.21617,1.27642 21.67781,3.07205 2.65114,3.2569 -2.00701,19.5555 -6.21018,21.72903 -1.17013,0.60511 -1.66115,0.60945 -3.3056,0.0292 -3.60605,-1.27229 -10.38226,-4.9159 -20.8116,-11.19055 -8.52699,-5.1301 -10.7679,-6.26729 -12.43633,-6.31104 -1.5709,-0.0411 -2.25202,0.21449 -2.98601,1.12095 -1.28767,1.59019 -1.20206,2.59985 0.50511,5.95714 1.86746,3.67248 5.02006,8.09046 12.22105,17.12635 3.18067,3.99114 6.27353,8.23634 6.873,9.4338 1.08181,2.16089 1.08273,2.18709 0.12327,3.5032 -1.35922,1.86433 -7.31977,5.80818 -11.07255,7.32624 -4.07753,1.64941 -8.45627,2.12059 -9.90532,1.0659 z m -10.55547,-48.16209 c 3.62599,-1.83202 5.45333,-4.54524 5.50815,-8.17843 0.0906,-6.00481 -6.18095,-10.6277 -12.2328,-9.01709 -11.07782,2.9482 -9.01187,18.00265 2.47078,18.00436 1.45872,2.1e-4 3.37297,-0.36376 4.25387,-0.80884 z"
       id="path3769" />
    <rect
       style="opacity:0.8;fill:url(#linearGradient3805);fill-opacity:1"
       id="rect3797"
       width="191.07143"
       height="51.147575"
       x="157.52538"
       y="400.99487" />
    <flowRoot
       transform="matrix(1.330839,0,0,1.330839,54.887028,246.57923)"
       xml:space="preserve"
       id="flowRoot2816-49-5"
       style="font-size:40px;font-style:normal;font-weight:normal;fill:#0dc0d5;fill-opacity:1;stroke:none;font-family:Bitstream Vera Sans"
       inkscape:transform-center-x="23.233509"
       inkscape:transform-center-y="-22.757347"><flowRegion
         id="flowRegion2818-94-9"><rect
           id="rect2820-5-2"
           width="414.28571"
           height="214.28572"
           x="80"
           y="103.79076"
           style="fill:#0dc0d5;fill-opacity:1" /></flowRegion><flowPara
         id="flowPara2822-9-73"
         style="font-size:40px;font-style:normal;font-variant:normal;font-weight:bold;font-stretch:normal;text-align:start;line-height:125%;writing-mode:lr-tb;text-anchor:start;fill:#0dc0d5;fill-opacity:1;font-family:Delicious;-inkscape-font-specification:Delicious Bold">sapience</flowPara></flowRoot>    <rect
       style="opacity:0.81886794;fill:url(#linearGradient3855);fill-opacity:1"
       id="rect3773-6"
       width="193.57143"
       height="36.071426"
       x="-332.30865"
       y="-248.3515"
       transform="matrix(-0.99980735,0.01962801,-0.01962801,-0.99980735,0,0)" />
    <path
       style="fill:#b3ff2b;fill-opacity:1;stroke:none"
       d="m 90.421541,215.94973 c -1.65035,-1.2012 -2.78698,-5.49526 -4.39464,-16.60231 -0.55926,-3.86381 -1.23582,-7.44857 -1.50346,-7.96615 -1.27492,-2.4654 -3.01724,-2.87906 -5.49857,-1.30544 -2.48847,1.57813 -3.59458,3.75107 -7.79339,15.31003 -3.30584,9.10063 -3.98368,10.36038 -5.574476,10.3599 -2.13812,-6.1e-4 -8.00428,-3.62623 -10.67696,-6.59888 -1.89662,-2.1095 -1.95246,-2.97482 -0.33125,-5.13363 1.82285,-2.42734 2.43428,-3.03598 9.45064,-9.40751 3.592376,-3.26222 6.810876,-6.38931 7.152216,-6.94909 0.82515,-1.35316 0.78417,-2.27385 -0.14954,-3.35933 -0.64376,-0.74843 -1.10085,-0.92197 -2.74087,-1.04061 -1.87703,-0.13577 -2.371096,0.0187 -10.656466,3.33375 -9.33155,3.73352 -13.50238,5.04243 -14.92765,4.68471 -1.16668,-0.29282 -1.9718,-2.14665 -2.66724,-6.14159 -0.64228,-3.68957 -0.49888,-8.18946 0.31092,-9.7554 0.40489,-0.78299 0.83947,-1.0996 1.74156,-1.26883 1.80728,-0.33907 7.58591,0.0998 15.68918,1.19143 8.609876,1.15991 10.412666,1.22063 11.176616,0.37648 0.70974,-0.78425 0.69466,-2.12201 -0.0313,-2.77215 -0.31656,-0.28353 -3.535606,-2.09523 -7.153446,-4.02601 -9.03937,-4.82416 -14.833,-8.29734 -16.52921,-9.90895 -1.23993,-1.17807 -1.39899,-1.48192 -1.20529,-2.30226 0.3747,-1.58684 1.46059,-3.12483 4.21444,-5.96914 3.03533,-3.13504 5.44294,-4.83312 6.41509,-4.52457 1.4653,0.46507 5.96251,6.03643 14.153426,17.53394 2.22675,3.12566 4.3171,5.82671 4.64523,6.00231 1.84656,0.98825 3.92879,-0.49414 3.92879,-2.79701 0,-0.76015 -0.95178,-4.77304 -2.11507,-8.91752 -3.62203,-12.90433 -3.93653,-16.14394 -1.66765,-17.17773 2.55258,-1.16302 9.64303,-1.33223 12.99175,-0.31002 l 1.48003,0.45178 -0.0251,2.94138 c -0.016,1.88212 -0.59676,6.34872 -1.61251,12.40309 -1.398,8.33286 -1.54053,9.61814 -1.19464,10.77262 0.50115,1.67271 1.60531,2.43535 3.06556,2.1174 1.14896,-0.25016 3.16338,-2.19275 14.238499,-13.73077 5.98674,-6.23698 6.28272,-6.42764 8.32046,-5.36008 2.60643,1.36548 6.63336,7.71198 6.64055,10.46564 0.003,1.10256 -0.18647,1.37742 -1.8467,2.68049 -2.34864,1.84334 -6.84544,4.50786 -14.75924,8.74536 -6.383849,3.41827 -8.386809,4.93854 -8.386809,6.36566 0,2.01705 1.61332,2.3346 14.471339,2.84848 10.25985,0.41002 13.28584,0.83884 14.24642,2.01891 1.7423,2.1404 -1.31899,12.85166 -4.08126,14.28008 -0.769,0.39767 -1.09169,0.40052 -2.17241,0.0192 -2.36985,-0.83614 -6.8231,-3.23068 -13.67715,-7.35431 -5.603839,-3.37144 -7.076539,-4.11879 -8.173019,-4.14754 -1.03237,-0.027 -1.48,0.14096 -1.96237,0.73667 -0.84624,1.04506 -0.78998,1.7086 0.33195,3.91497 1.22728,2.41351 3.29913,5.31696 8.03154,11.25525 2.090299,2.62293 4.122899,5.41283 4.516859,6.19979 0.71095,1.42011 0.71156,1.43733 0.081,2.30226 -0.89326,1.22522 -4.810469,3.81707 -7.276749,4.81472 -2.67971,1.08398 -5.55737,1.39363 -6.50967,0.7005 z m -6.93694,-31.65159 c 2.38296,-1.20398 3.58387,-2.98708 3.61989,-5.37477 0.0596,-3.9463 -4.06205,-6.98441 -8.03926,-5.92593 -7.28022,1.93752 -5.9225,11.83114 1.62377,11.83226 0.95866,1.4e-4 2.21668,-0.23906 2.7956,-0.53156 z"
       id="path3769-8" />
    <rect
       style="opacity:0.8;fill:url(#linearGradient3805-9);fill-opacity:1"
       id="rect3797-5"
       width="191.07143"
       height="51.147575"
       x="141.45215"
       y="196.2455" />
    <flowRoot
       transform="matrix(1.330839,0,0,1.330839,-36.900481,58.972716)"
       xml:space="preserve"
       id="flowRoot2816-49-5-4"
       style="font-size:40px;font-style:normal;font-weight:normal;fill:#0dc0d5;fill-opacity:1;stroke:none;font-family:Bitstream Vera Sans"
       inkscape:transform-center-x="23.233509"
       inkscape:transform-center-y="-22.757347"><flowRegion
         id="flowRegion2818-94-9-9"><rect
           id="rect2820-5-2-4"
           width="414.28571"
           height="214.28572"
           x="80"
           y="103.79076"
           style="fill:#0dc0d5;fill-opacity:1" /></flowRegion><flowPara
         id="flowPara2822-9-73-6"
         style="font-size:40px;font-style:normal;font-variant:normal;font-weight:bold;font-stretch:normal;text-align:start;line-height:125%;writing-mode:lr-tb;text-anchor:start;fill:#0dc0d5;fill-opacity:1;font-family:Delicious;-inkscape-font-specification:Delicious Bold">sapience</flowPara></flowRoot>    <flowRoot
       transform="matrix(2.296802,0,0,2.296802,168.8395,-123.01361)"
       xml:space="preserve"
       id="flowRoot2816-49-5-4-6"
       style="font-size:40px;font-style:normal;font-weight:normal;fill:#0dc0d5;fill-opacity:1;stroke:none;font-family:Bitstream Vera Sans"
       inkscape:transform-center-x="40.09709"
       inkscape:transform-center-y="-39.275312"><flowRegion
         id="flowRegion2818-94-9-9-1"><rect
           id="rect2820-5-2-4-3"
           width="414.28571"
           height="214.28572"
           x="80"
           y="103.79076"
           style="fill:#0dc0d5;fill-opacity:1" /></flowRegion><flowPara
         id="flowPara2822-9-73-6-7"
         style="font-size:40px;font-style:normal;font-variant:normal;font-weight:bold;font-stretch:normal;text-align:start;line-height:125%;writing-mode:lr-tb;text-anchor:start;fill:#0dc0d5;fill-opacity:1;font-family:Delicious;-inkscape-font-specification:Delicious Bold">sapience</flowPara></flowRoot>    <path
       style="fill:#b3ff2b;fill-opacity:1;stroke:none"
       d="m 501.19335,186.34225 c -1.54668,-1.12576 -2.61193,-5.1501 -4.11861,-15.5595 -0.52412,-3.62112 -1.1582,-6.98072 -1.40902,-7.46579 -1.19484,-2.31055 -2.82773,-2.69821 -5.1532,-1.22345 -2.33217,1.47902 -3.3688,3.51547 -7.30389,14.34839 -3.09819,8.52902 -3.73344,9.70964 -5.22432,9.70919 -2.00383,-7.6e-4 -7.50154,-3.39847 -10.00633,-6.1844 -1.7775,-1.977 -1.82983,-2.78797 -0.31045,-4.81117 1.70835,-2.27488 2.28138,-2.84529 8.85704,-8.81662 3.36673,-3.05732 6.38308,-5.98799 6.70297,-6.51262 0.77333,-1.26816 0.73491,-2.13101 -0.14014,-3.14832 -0.60332,-0.70142 -1.03171,-0.86405 -2.56871,-0.97524 -1.75914,-0.12724 -2.22217,0.0176 -9.98713,3.12435 -8.74542,3.49901 -12.65429,4.72571 -13.99002,4.39046 -1.09341,-0.27443 -1.84796,-2.01182 -2.49971,-5.75584 -0.60194,-3.45781 -0.46755,-7.67506 0.29138,-9.14265 0.37946,-0.73381 0.78675,-1.03053 1.63217,-1.18913 1.69377,-0.31777 7.10944,0.0935 14.70374,1.11659 8.06907,1.08706 9.75863,1.14396 10.4746,0.35284 0.66515,-0.73499 0.65102,-1.98872 -0.0294,-2.59803 -0.29667,-0.26572 -3.31353,-1.96362 -6.70413,-3.77314 -8.47159,-4.52113 -13.90132,-7.77617 -15.49099,-9.28655 -1.16205,-1.10407 -1.31112,-1.38884 -1.12958,-2.15764 0.35116,-1.48717 1.36884,-2.92856 3.94973,-5.59422 2.84467,-2.93812 5.10105,-4.52954 6.01214,-4.24038 1.37326,0.43587 5.588,5.65728 13.26444,16.43261 2.08688,2.92934 4.04594,5.46073 4.35345,5.62529 1.73058,0.92619 3.68203,-0.46308 3.68203,-2.62132 0,-0.71239 -0.892,-4.47324 -1.98223,-8.35739 -3.39452,-12.09379 -3.68926,-15.12992 -1.5629,-16.09878 2.39225,-1.08996 9.03734,-1.24855 12.17572,-0.29055 l 1.38707,0.42341 -0.0235,2.75663 c -0.015,1.7639 -0.55928,5.94995 -1.51122,11.62403 -1.3102,7.80947 -1.44377,9.01402 -1.11961,10.09598 0.46968,1.56764 1.50448,2.28239 2.87301,1.98441 1.07679,-0.23445 2.96468,-2.05502 13.34416,-12.86832 5.61071,-5.84523 5.88809,-6.02393 7.79784,-5.02342 2.44272,1.27971 6.21671,7.22758 6.22345,9.80828 0.002,1.03331 -0.17475,1.29091 -1.7307,2.51213 -2.20113,1.72756 -6.41547,4.22472 -13.83219,8.19605 -5.98288,3.20357 -7.86003,4.62834 -7.86003,5.96583 0,1.89036 1.51199,2.18795 13.56238,2.66957 9.61541,0.38426 12.45133,0.78615 13.35159,1.89209 1.63285,2.00596 -1.23615,12.04442 -3.82493,13.38313 -0.72069,0.3727 -1.0231,0.37536 -2.03595,0.018 -2.221,-0.78362 -6.39453,-3.02776 -12.81808,-6.89237 -5.25185,-3.15967 -6.63205,-3.86008 -7.65966,-3.88704 -0.96752,-0.0252 -1.38704,0.13211 -1.83911,0.69041 -0.79307,0.97942 -0.74036,1.60128 0.3111,3.66907 1.15021,2.26191 3.09191,4.98299 7.52708,10.54828 1.95899,2.45819 3.86393,5.07285 4.23315,5.81037 0.66629,1.33092 0.66686,1.34706 0.0759,2.15767 -0.83715,1.14825 -4.50832,3.57731 -6.81968,4.51229 -2.5114,1.0159 -5.20831,1.30609 -6.1008,0.65651 z m -6.50123,-29.66352 c 2.23329,-1.12836 3.35878,-2.79946 3.39252,-5.03717 0.0558,-3.69842 -3.80691,-6.54571 -7.5343,-5.55371 -6.82294,1.81581 -5.55051,11.08801 1.52179,11.08906 0.89843,1.2e-4 2.07744,-0.22406 2.61999,-0.49818 z"
       id="path3769-8-1" />
    <path
       style="fill:#b3ff2b;fill-opacity:1;stroke:none;filter:url(#filter3998)"
       d="m 531.98579,440.4102 c -2.90296,-2.11294 -4.90233,-9.66623 -7.73022,-29.20363 -0.98372,-6.79648 -2.17382,-13.10212 -2.64459,-14.01255 -2.24259,-4.33667 -5.30736,-5.06427 -9.67204,-2.29629 -4.37725,2.77597 -6.3229,6.59819 -13.70867,26.9305 -5.815,16.00812 -7.0073,18.22403 -9.80553,18.22318 -3.76099,-10e-4 -14.07964,-6.37859 -18.78089,-11.6075 -3.33619,-3.71063 -3.4344,-5.23274 -0.58268,-9.03009 3.2064,-4.26972 4.28192,-5.34032 16.62378,-16.54792 6.31902,-5.73828 11.98041,-11.23886 12.58081,-12.22353 1.45146,-2.38021 1.37935,-3.9997 -0.26303,-5.90909 -1.13237,-1.31649 -1.93642,-1.62173 -4.82121,-1.83043 -3.30173,-0.23881 -4.17079,0.033 -18.74485,5.8641 -16.41428,6.56729 -23.75084,8.86968 -26.25787,8.24045 -2.05223,-0.51507 -3.46844,-3.77598 -4.69171,-10.80313 -1.12978,-6.48997 -0.87755,-14.40533 0.54689,-17.15985 0.71221,-1.37729 1.47665,-1.9342 3.06342,-2.23188 3.17904,-0.59642 13.34371,0.17549 27.59746,2.09573 15.14484,2.04031 18.31597,2.1471 19.65978,0.66225 1.24842,-1.37951 1.2219,-3.73263 -0.0552,-4.87625 -0.55682,-0.49873 -6.21917,-3.68551 -12.58299,-7.0818 -15.90033,-8.48571 -26.09139,-14.5951 -29.07504,-17.42993 -2.18105,-2.07223 -2.46084,-2.60672 -2.12011,-4.04968 0.65909,-2.79127 2.56917,-5.49661 7.41325,-10.49979 5.33916,-5.51456 9.57416,-8.5015 11.28419,-7.95877 2.57747,0.81808 10.48811,10.61815 24.89603,30.84237 3.91686,5.49808 7.59382,10.24925 8.17099,10.55811 3.24813,1.73836 6.9108,-0.86916 6.9108,-4.91996 0,-1.33708 -1.67419,-8.39582 -3.72045,-15.68599 -6.37117,-22.69884 -6.92437,-28.39735 -2.9334,-30.2158 4.49001,-2.04575 16.96218,-2.34341 22.85261,-0.54534 l 2.60339,0.7947 -0.0441,5.17392 c -0.0282,3.31067 -1.04972,11.16747 -2.83641,21.81715 -2.45912,14.6576 -2.70982,16.91842 -2.1014,18.94915 0.88154,2.9423 2.82376,4.28382 5.39235,3.72454 2.02103,-0.44004 5.56441,-3.85707 25.04566,-24.15256 10.53074,-10.97091 11.05136,-11.30631 14.63577,-9.42846 4.58474,2.40189 11.66815,13.56545 11.6808,18.40917 0.004,1.93942 -0.32799,2.42291 -3.24836,4.71502 -4.1313,3.24245 -12.04119,7.92937 -25.96164,15.38316 -11.22927,6.01279 -14.75249,8.68694 -14.75249,11.19727 0,3.54802 2.83785,4.10657 25.45523,5.01052 18.04717,0.72122 23.36991,1.47553 25.05961,3.55126 3.0647,3.76499 -2.32013,22.60618 -7.17901,25.11881 -1.35267,0.69952 -1.92026,0.70451 -3.82128,0.0338 -4.16859,-1.47078 -12.00189,-5.6828 -24.05826,-12.93629 -9.8572,-5.93039 -12.4477,-7.24499 -14.37642,-7.29559 -1.81594,-0.0473 -2.60333,0.24796 -3.45182,1.29583 -1.48852,1.83828 -1.38958,3.00545 0.5839,6.88648 2.15883,4.24538 5.80321,9.35258 14.12758,19.79807 3.67683,4.61378 7.25221,9.52124 7.9452,10.90549 1.25056,2.498 1.25163,2.52829 0.14246,4.04973 -1.57125,2.15515 -8.46167,6.71425 -12.79986,8.46912 -4.71365,1.90674 -9.77548,2.4514 -11.4506,1.2322 z m -12.20216,-55.67547 c 4.19167,-2.11782 6.3041,-5.25431 6.36743,-9.45427 0.10473,-6.94156 -7.1452,-12.28564 -14.14114,-10.42376 -12.80597,3.4081 -10.41775,20.81109 2.85625,20.81306 1.68627,2.3e-4 3.89915,-0.42054 4.91746,-0.93503 z"
       id="path3769-8-1-8" />
    <flowRoot
       transform="matrix(2.1033425,0,0,2.1033425,-127.90611,591.16654)"
       xml:space="preserve"
       id="flowRoot2816-49-5-4-6-1"
       style="font-size:40px;font-style:normal;font-weight:normal;fill:#0dc0d5;fill-opacity:1;stroke:none;font-family:Bitstream Vera Sans"
       inkscape:transform-center-x="36.719729"
       inkscape:transform-center-y="-35.967168"><flowRegion
         id="flowRegion2818-94-9-9-1-3"><rect
           id="rect2820-5-2-4-3-3"
           width="414.28571"
           height="214.28572"
           x="80"
           y="103.79076"
           style="fill:#0dc0d5;fill-opacity:1" /></flowRegion><flowPara
         id="flowPara2822-9-73-6-7-9"
         style="font-size:40px;font-style:normal;font-variant:normal;font-weight:bold;font-stretch:normal;text-align:start;line-height:125%;writing-mode:lr-tb;text-anchor:start;fill:#0dc0d5;fill-opacity:1;font-family:Fontin;-inkscape-font-specification:Fontin Medium">sapience</flowPara></flowRoot>    <path
       style="fill:#b3ff2b;fill-opacity:1;stroke:none;filter:url(#filter4344)"
       d="m 124.69352,128.56281 c -2.51122,-1.82779 -4.24075,-8.36176 -6.68702,-25.26261 -0.85099,-5.879301 -1.88046,-11.333991 -2.28772,-12.121561 -1.93996,-3.75143 -4.59113,-4.38087 -8.3668,-1.9864 -3.78653,2.40133 -5.46962,5.70775 -11.858676,23.296241 -5.03027,13.84782 -6.06169,15.76469 -8.48231,15.76396 -3.25343,-9.2e-4 -12.17957,-5.51778 -16.2464,-10.04107 -2.88597,-3.20988 -2.97093,-4.52658 -0.50405,-7.8115 2.77371,-3.69352 3.70409,-4.61964 14.3804,-14.314771 5.46629,-4.9639 10.36366,-9.72218 10.88306,-10.57396 1.25558,-2.05902 1.19321,-3.45996 -0.22754,-5.11167 -0.97957,-1.13884 -1.6751,-1.4029 -4.17061,-1.58342 -2.85614,-0.20659 -3.60794,0.0285 -16.21523,5.07274 -14.19918,5.68104 -20.54565,7.67273 -22.7144,7.12841 -1.77526,-0.44557 -3.00035,-3.26642 -4.05856,-9.34525 -0.97731,-5.61417 -0.7591,-12.46135 0.47311,-14.84414 0.6161,-1.19142 1.27737,-1.67318 2.65001,-1.93069 2.75003,-0.51593 11.54297,0.15182 23.87317,1.81292 13.10108,1.76496 15.84426,1.85735 17.00672,0.57286 1.07995,-1.19334 1.05701,-3.22891 -0.0476,-4.21818 -0.4817,-0.43143 -5.37991,-3.18817 -10.88493,-6.12611 -13.7546,-7.34061 -22.57038,-12.62551 -25.15139,-15.07779 -1.88671,-1.79259 -2.12874,-2.25493 -1.834,-3.50319 0.57015,-2.41458 2.22248,-4.75485 6.41282,-9.08283 4.61867,-4.77038 8.28216,-7.35424 9.76141,-6.88474 2.22965,0.70767 9.07275,9.18523 21.53632,26.68021 3.3883,4.75611 6.56905,8.86611 7.06834,9.13332 2.809786,1.50375 5.978176,-0.75191 5.978176,-4.25602 0,-1.15668 -1.44826,-7.26282 -3.21837,-13.56919 -5.511396,-19.63565 -5.989946,-24.56515 -2.537536,-26.1382 3.884086,-1.76969 14.673146,-2.02716 19.768666,-0.47174 l 2.25206,0.68745 -0.0382,4.4757 c -0.0243,2.86389 -0.90805,9.66042 -2.45364,18.87294 -2.12724,12.67955 -2.34413,14.63527 -1.81781,16.39197 0.76257,2.54525 2.4427,3.70571 4.66466,3.2219 1.74829,-0.38065 4.8135,-3.33656 21.66576,-20.89318 9.10962,-9.4904 9.55999,-9.78051 12.66069,-8.15608 3.96602,2.07777 10.09353,11.73481 10.10448,15.92486 0.004,1.6777 -0.28375,2.09593 -2.81001,4.07872 -3.57376,2.8049 -10.41624,6.85931 -22.45814,13.30723 -9.71387,5.20136 -12.76164,7.51465 -12.76164,9.6862 0,3.06921 2.45488,3.5524 22.02007,4.33433 15.61172,0.62391 20.21617,1.27642 21.67781,3.07205 2.65114,3.2569 -2.00701,19.5555 -6.21018,21.729031 -1.17013,0.60511 -1.66115,0.60945 -3.3056,0.0292 -3.60605,-1.272291 -10.38226,-4.915901 -20.8116,-11.190551 -8.52699,-5.1301 -10.7679,-6.26729 -12.43633,-6.31104 -1.5709,-0.0411 -2.25202,0.21449 -2.98601,1.12095 -1.28767,1.59019 -1.20206,2.59985 0.50511,5.95714 1.86746,3.67248 5.02006,8.09046 12.22105,17.126351 3.18067,3.99114 6.27353,8.23634 6.873,9.4338 1.08181,2.16089 1.08273,2.18709 0.12327,3.5032 -1.35922,1.86433 -7.31977,5.80818 -11.07255,7.32624 -4.07753,1.64941 -8.45627,2.12059 -9.90532,1.0659 z M 114.13805,80.400719 c 3.62599,-1.83202 5.45333,-4.54524 5.50815,-8.17843 0.0906,-6.00481 -6.18095,-10.6277 -12.2328,-9.01709 -11.077816,2.9482 -9.011866,18.00265 2.47078,18.00436 1.45872,2.1e-4 3.37297,-0.36376 4.25387,-0.80884 z"
       id="path3769-82" />
    <path
       style="fill:#b3ff2b;fill-opacity:1;stroke:none"
       d="m 682.09248,740.38361 c -1.15985,-0.84418 -1.95865,-3.862 -3.0885,-11.6679 -0.39304,-2.71544 -0.86852,-5.23478 -1.05662,-5.59853 -0.896,-1.73265 -2.12048,-2.02337 -3.86432,-0.91744 -1.74887,1.10909 -2.52622,2.6362 -5.47711,10.7597 -2.3233,6.39582 -2.79968,7.28116 -3.91768,7.28082 -1.50263,-4.2e-4 -5.62531,-2.54846 -7.50363,-4.63761 -1.33292,-1.48253 -1.37217,-2.09067 -0.2328,-3.60786 1.28108,-1.7059 1.71079,-2.13365 6.64179,-6.61148 2.52469,-2.29265 4.78661,-4.49033 5.02651,-4.88374 0.5799,-0.95099 0.5511,-1.59803 -0.10509,-2.3609 -0.45244,-0.52599 -0.77368,-0.64795 -1.92626,-0.73133 -1.31916,-0.0954 -1.66639,0.0131 -7.48924,2.34292 -6.5581,2.62387 -9.48931,3.54377 -10.49098,3.29236 -0.81993,-0.20579 -1.38575,-1.50864 -1.87451,-4.31624 -0.45138,-2.59299 -0.3506,-5.75545 0.21852,-6.85598 0.28456,-0.55027 0.58997,-0.77278 1.22394,-0.89172 1.27015,-0.23829 5.3313,0.0701 11.02617,0.83733 6.05093,0.81517 7.3179,0.85784 7.85481,0.26458 0.49878,-0.55117 0.48819,-1.49132 -0.022,-1.94823 -0.22248,-0.19926 -2.48479,-1.4725 -5.02737,-2.82943 -6.35276,-3.39036 -10.42446,-5.83128 -11.61653,-6.9639 -0.87141,-0.82793 -0.98319,-1.04147 -0.84706,-1.61799 0.26333,-1.11522 1.02649,-2.1961 2.96185,-4.19504 2.1332,-2.20327 3.82524,-3.39667 4.50845,-3.17982 1.0298,0.32685 4.19038,4.24233 9.94686,12.32264 1.56494,2.19668 3.03402,4.09495 3.26462,4.21836 1.29774,0.69453 2.76111,-0.34728 2.76111,-1.96571 0,-0.53422 -0.6689,-3.35444 -1.48645,-6.26713 -2.54552,-9.06901 -2.76655,-11.34577 -1.172,-12.0723 1.79392,-0.81736 6.77701,-0.93627 9.13044,-0.21788 l 1.04015,0.3175 -0.0177,2.06717 c -0.0112,1.32274 -0.41941,4.46181 -1.13326,8.71674 -0.98249,5.85624 -1.08266,6.75952 -0.83958,7.57087 0.35221,1.17557 1.1282,1.71154 2.15444,1.48809 0.80748,-0.17581 2.22319,-1.54104 10.00665,-9.64982 4.20742,-4.38328 4.41543,-4.51728 5.84753,-3.767 1.83176,0.95964 4.66184,5.41988 4.6669,7.35512 0.002,0.77487 -0.13105,0.96803 -1.29784,1.88382 -1.6506,1.29548 -4.81089,3.16807 -10.37262,6.14614 -4.4865,2.40232 -5.89415,3.47075 -5.89415,4.47371 0,1.41756 1.13381,1.64072 10.17029,2.00187 7.21049,0.28816 9.33713,0.58954 10.01221,1.41887 1.22447,1.50425 -0.92697,9.03199 -2.86826,10.03587 -0.54045,0.27948 -0.76723,0.28148 -1.52674,0.0135 -1.66551,-0.58762 -4.7952,-2.27048 -9.61215,-5.16852 -3.93831,-2.36941 -4.97331,-2.89463 -5.7439,-2.91484 -0.72554,-0.0189 -1.04012,0.0991 -1.37913,0.51772 -0.59473,0.73446 -0.55519,1.20078 0.2333,2.7514 0.86251,1.69619 2.31858,3.73669 5.64447,7.91005 1.46904,1.84337 2.89752,3.80408 3.17439,4.35714 0.49965,0.99804 0.50007,1.01014 0.0569,1.618 -0.62777,0.86108 -3.38073,2.6826 -5.11401,3.38374 -1.88327,0.7618 -3.90565,0.97943 -4.57492,0.4923 z m -4.8752,-22.24437 c 1.67472,-0.84614 2.5187,-2.09928 2.54402,-3.77732 0.0418,-2.77341 -2.85476,-4.90856 -5.6499,-4.16468 -5.11644,1.36167 -4.16225,8.31479 1.14117,8.31558 0.67373,10e-5 1.55785,-0.16801 1.96471,-0.37358 z"
       id="path3769-5" />
    <path
       style="fill:#b3ff2b;fill-opacity:1;stroke:none"
       d="m 268.39559,130.86729 c -2.51122,-1.82779 -4.24075,-8.36176 -6.68702,-25.26262 -0.85099,-5.879301 -1.88046,-11.333991 -2.28772,-12.121561 -1.93996,-3.75143 -4.59113,-4.38087 -8.3668,-1.9864 -3.78653,2.40133 -5.46962,5.70775 -11.85868,23.296241 -5.03027,13.84783 -6.06169,15.7647 -8.48231,15.76397 -3.25343,-9.2e-4 -12.17957,-5.51778 -16.2464,-10.04107 -2.88597,-3.20988 -2.97093,-4.52658 -0.50405,-7.81151 2.77371,-3.69352 3.70409,-4.61964 14.3804,-14.314771 5.46629,-4.9639 10.36366,-9.72218 10.88306,-10.57396 1.25558,-2.05902 1.19321,-3.45996 -0.22754,-5.11167 -0.97957,-1.13884 -1.6751,-1.4029 -4.17061,-1.58342 -2.85614,-0.20659 -3.60794,0.0285 -16.21523,5.07274 -14.19918,5.68104 -20.54565,7.67273 -22.7144,7.12841 -1.77526,-0.44557 -3.00035,-3.26642 -4.05856,-9.34525 -0.97731,-5.61417 -0.7591,-12.46135 0.47311,-14.84414 0.6161,-1.19142 1.27737,-1.67318 2.65001,-1.93069 2.75003,-0.51593 11.54297,0.15182 23.87317,1.81292 13.10108,1.76496 15.84426,1.85735 17.00672,0.57286 1.07995,-1.19334 1.05701,-3.22891 -0.0476,-4.21818 -0.4817,-0.43143 -5.37991,-3.18817 -10.88493,-6.12611 -13.7546,-7.34061 -22.57038,-12.62551 -25.15139,-15.07779 -1.88671,-1.79259 -2.12874,-2.25493 -1.834,-3.50319 0.57015,-2.41458 2.22248,-4.75485 6.41282,-9.08283 4.61867,-4.77038 8.28216,-7.35424 9.76141,-6.88474 2.22965,0.70767 9.07275,9.18523 21.53632,26.68021 3.3883,4.75611 6.56905,8.86611 7.06834,9.13332 2.80979,1.50375 5.97818,-0.75191 5.97818,-4.25602 0,-1.15668 -1.44826,-7.26282 -3.21837,-13.56919 -5.5114,-19.63565 -5.98995,-24.56515 -2.53754,-26.1382 3.88409,-1.76969 14.67315,-2.02716 19.76867,-0.47174 l 2.25206,0.68745 -0.0382,4.4757 c -0.0243,2.86389 -0.90805,9.66042 -2.45364,18.87294 -2.12724,12.67955 -2.34413,14.63527 -1.81781,16.39197 0.76257,2.54525 2.4427,3.70571 4.66466,3.2219 1.74829,-0.38065 4.8135,-3.33656 21.66576,-20.89318 9.10963,-9.4904 9.56,-9.78051 12.6607,-8.15608 3.96602,2.07777 10.09353,11.73481 10.10448,15.92486 0.004,1.6777 -0.28375,2.09593 -2.81001,4.07872 -3.57376,2.8049 -10.41624,6.85931 -22.45815,13.30723 -9.71387,5.20136 -12.76164,7.51465 -12.76164,9.6862 0,3.06921 2.45488,3.5524 22.02008,4.33433 15.61172,0.62391 20.21617,1.27642 21.67781,3.07205 2.65114,3.2569 -2.00701,19.555501 -6.21018,21.729031 -1.17013,0.60511 -1.66115,0.60945 -3.3056,0.0292 -3.60605,-1.27229 -10.38226,-4.915901 -20.81161,-11.190551 -8.52699,-5.1301 -10.7679,-6.26729 -12.43633,-6.31104 -1.5709,-0.0411 -2.25202,0.21449 -2.98601,1.12095 -1.28767,1.59019 -1.20206,2.59985 0.50511,5.95714 1.86746,3.67248 5.02006,8.090461 12.22105,17.126351 3.18067,3.99114 6.27353,8.23635 6.873,9.43381 1.08181,2.16089 1.08273,2.18709 0.12327,3.5032 -1.35922,1.86433 -7.31977,5.80818 -11.07255,7.32624 -4.07753,1.64941 -8.45627,2.12059 -9.90532,1.0659 z M 257.84012,82.705189 c 3.62599,-1.83202 5.45333,-4.54524 5.50815,-8.17843 0.0906,-6.00481 -6.18095,-10.6277 -12.2328,-9.01709 -11.07782,2.9482 -9.01187,18.00265 2.47078,18.00436 1.45872,2.1e-4 3.37297,-0.36376 4.25387,-0.80884 z"
       id="path3769-5-2" />
    <flowRoot
       transform="matrix(2.6990433,0,0,2.6990433,-458.08311,264.81367)"
       xml:space="preserve"
       id="flowRoot2816-49-5-4-6-1-1"
       style="font-size:40px;font-style:normal;font-weight:normal;text-align:end;text-anchor:end;fill:#0dc0d5;fill-opacity:1;stroke:none;font-family:Bitstream Vera Sans Mono;-inkscape-font-specification:Bitstream Vera Sans Mono"
       inkscape:transform-center-x="47.119348"
       inkscape:transform-center-y="-46.153642"
       inkscape:export-filename="C:\Users\pajoma\workspace\sapience-svn\user\pajoma\sapience-service-proxy-gae\war\html\logo.png"
       inkscape:export-xdpi="100"
       inkscape:export-ydpi="100"><flowRegion
         id="flowRegion2818-94-9-9-1-3-7"><rect
           id="rect2820-5-2-4-3-3-4"
           width="219.62743"
           height="34.081215"
           x="80"
           y="103.79076"
           style="text-align:end;text-anchor:end;fill:#0dc0d5;fill-opacity:1;font-family:Bitstream Vera Sans Mono;-inkscape-font-specification:Bitstream Vera Sans Mono" /></flowRegion><flowPara
         style="font-size:18.44508553px;font-style:normal;font-variant:normal;font-weight:normal;font-stretch:normal;text-align:end;line-height:60.00000238%;writing-mode:lr-tb;text-anchor:end;fill:#0dc0d5;fill-opacity:1;font-family:Delicious;-inkscape-font-specification:Delicious"
         id="flowPara2975"> semantic</flowPara><flowPara
         style="font-size:18.44508553px;font-style:normal;font-variant:normal;font-weight:normal;font-stretch:normal;text-align:end;line-height:60.00000238%;writing-mode:lr-tb;text-anchor:end;fill:#0dc0d5;fill-opacity:1;font-family:Delicious;-inkscape-font-specification:Delicious"
         id="flowPara3117">annotations</flowPara></flowRoot>    <text
       xml:space="preserve"
       style="font-size:40px;font-style:normal;font-weight:normal;fill:#000000;fill-opacity:1;stroke:none;font-family:Arabic Typesetting;-inkscape-font-specification:Arabic Typesetting"
       x="591.42859"
       y="493.79074"
       id="text3751"><tspan
         sodipodi:role="line"
         id="tspan3753"
         x="591.42859"
         y="493.79074" /></text>
    <flowRoot
       transform="matrix(3.8789012,0,0,3.8789012,-467.87251,181.97438)"
       xml:space="preserve"
       id="flowRoot2816-49-5-4-6-1-1-1"
       style="font-size:40px;font-style:normal;font-weight:normal;text-align:center;text-anchor:middle;fill:#b3ff2b;fill-opacity:1;stroke:none;font-family:Delicious Heavy;-inkscape-font-specification:'Delicious Heavy,';font-stretch:normal;font-variant:normal"
       inkscape:transform-center-x="67.717091"
       inkscape:transform-center-y="-66.329238"><flowRegion
         id="flowRegion2818-94-9-9-1-3-7-7"><rect
           id="rect2820-5-2-4-3-3-4-4"
           width="221.49066"
           height="13.58563"
           x="80"
           y="103.79076"
           style="text-align:center;text-anchor:middle;fill:#b3ff2b;fill-opacity:1;font-family:Delicious Heavy;-inkscape-font-specification:'Delicious Heavy,';font-weight:normal;font-style:normal;font-stretch:normal;font-variant:normal" /></flowRegion><flowPara
         style="font-size:16.64018059000000000px;font-style:normal;font-variant:normal;font-weight:normal;font-stretch:normal;text-align:center;line-height:100%;writing-mode:lr-tb;text-anchor:middle;fill:#b3ff2b;fill-opacity:1;font-family:Delicious Heavy;-inkscape-font-specification:'Delicious Heavy,'"
         id="flowPara2975-0">PROXY</flowPara></flowRoot>    <text
       xml:space="preserve"
       style="font-size:40px;font-style:normal;font-weight:normal;fill:#000000;fill-opacity:1;stroke:none;font-family:Arabic Typesetting;-inkscape-font-specification:Arabic Typesetting"
       x="236.3757"
       y="602.8443"
       id="text3119"><tspan
         sodipodi:role="line"
         id="tspan3121"
         x="236.3757"
         y="602.8443" /></text>
    <text
       xml:space="preserve"
       style="font-size:33.18938828px;font-style:normal;font-weight:normal;fill:#b3ff2b;fill-opacity:0.55294118;stroke:none;font-family:Arabic Typesetting;-inkscape-font-specification:Arabic Typesetting"
       x="350.29419"
       y="566.69305"
       id="text3123"
       inkscape:export-filename="C:\Users\pajoma\workspace\sapience-svn\user\pajoma\sapience-service-proxy-gae\war\html\logo.png"
       inkscape:export-xdpi="100"
       inkscape:export-ydpi="100"><tspan
         sodipodi:role="line"
         id="tspan3125"
         x="350.29419"
         y="566.69305"
         style="font-size:49.78408051px;font-style:normal;font-variant:normal;font-weight:normal;font-stretch:normal;fill:#b3ff2b;fill-opacity:0.55294118;font-family:Delicious;-inkscape-font-specification:Delicious">proxy</tspan></text>
  </g>
</svg>
